<svg width="162" height="14" viewBox="0 0 162 14" fill="none" xmlns="http://www.w3.org/2000/svg">
<g clip-path="url(#clip0_1_222)">
<path d="M9.22535 4.69063H8.32935C8.19719 3.63783 7.97318 1.97351 5.81382 1.97351C3.79782 1.97351 2.76519 3.94471 2.76519 6.06151C2.76519 8.28583 3.50439 10.3646 6.12519 10.3646C7.55879 10.3646 8.47719 9.55143 9.12903 8.99367L9.7495 9.55144C9.22322 10.1242 8.58224 10.5798 7.86827 10.8886C7.15429 11.1973 6.38332 11.3523 5.6055 11.3434C2.4695 11.3434 0.0413513 9.58503 0.0413513 6.32135C0.0413513 2.92551 2.61734 1.30151 5.81382 1.30151C6.95538 1.30262 8.0944 1.4091 9.21638 1.6196L9.22535 4.69063Z" fill="white"/>
<path d="M17.9188 11.1373C17.3669 11.2427 16.8072 11.3019 16.2455 11.3143C15.3876 11.3143 15.1658 11.0343 15.0157 10.6781C14.9732 10.5751 14.9732 10.5011 14.9284 10.5011C14.8836 10.5011 14.8544 10.5594 14.6618 10.6938C14.0593 11.113 13.3393 11.3303 12.6055 11.3143C11.1383 11.3143 10.3095 10.3667 10.3095 9.16833C10.3095 7.64513 11.4048 7.31809 13.1072 6.82977C14.9418 6.31233 15.0157 6.31234 15.0157 5.36482C15.0157 4.4173 14.7917 4.06338 14.0391 4.06338C13.3447 4.06338 13.0624 4.49121 13.0624 5.14305C13.0641 5.36102 13.1203 5.5751 13.226 5.76577C12.8956 6.04536 12.476 6.19717 12.0432 6.19361C11.3466 6.19361 10.874 5.77921 10.874 5.07361C10.874 3.90433 12.2941 3.32642 13.786 3.32642C15.7258 3.32642 17.0877 3.83041 17.0877 5.8733V9.52898C17.0877 10.425 17.2042 10.4899 17.9165 10.4899L17.9188 11.1373ZM15.0068 7.00898C13.2775 7.61378 12.61 7.95426 12.61 9.08098C12.5991 9.22821 12.6199 9.37605 12.671 9.51457C12.722 9.6531 12.8021 9.7791 12.9058 9.88412C13.0096 9.98915 13.1346 10.0708 13.2725 10.1235C13.4104 10.1762 13.558 10.1988 13.7053 10.1898C14.7268 10.1898 15.0068 9.27137 15.0068 8.17377V7.00898Z" fill="white"/>
<path d="M23.0103 11.1374V10.3982C23.4583 10.3668 23.7495 10.2638 23.7495 9.72618V5.97194C23.7495 5.12746 23.409 4.68394 22.6833 4.68394C22.4561 4.69727 22.2341 4.75679 22.0307 4.85885C21.8274 4.96091 21.647 5.10338 21.5005 5.27754V9.71722C21.5005 10.2638 21.7962 10.3668 22.2397 10.3892V11.1284H18.5101V10.3892C19.0141 10.3579 19.3098 10.2548 19.3098 9.71722V4.9505C19.3098 4.37258 19.0141 4.24041 18.4138 4.21129V3.58858L21.402 3.32202V4.34346C21.402 4.40394 21.4311 4.41738 21.4759 4.41738C21.5207 4.41738 21.5498 4.41738 21.6999 4.26954C21.9749 3.97833 22.3051 3.74462 22.6711 3.58197C23.0372 3.41932 23.4319 3.33096 23.8324 3.32202C25.49 3.32202 25.9335 4.50698 25.9335 6.22282V9.71722C25.9335 10.2638 26.2292 10.3668 26.7332 10.3892V11.1284L23.0103 11.1374Z" fill="white"/>
<path d="M34.2282 8.75402C33.8295 9.67242 32.985 11.3143 30.6778 11.3143C28.4378 11.3143 27.0647 9.9233 27.0647 7.62954C27.0647 5.12746 28.664 3.32202 31.1952 3.32202C32.8372 3.32202 34.0512 3.94474 34.0512 5.11402C34.0512 5.72106 33.6212 6.31242 32.6893 6.31242C32.325 6.31731 31.9666 6.22033 31.6545 6.03242C31.7163 5.85081 31.7459 5.65976 31.7418 5.46794C31.7418 4.79594 31.5648 4.06346 30.7808 4.06346C29.4368 4.06346 29.1681 5.6897 29.1681 6.96426C29.1681 8.65098 30.026 9.77546 31.4081 9.77546C32.3399 9.77546 33.0052 9.36106 33.5696 8.36874L34.2282 8.75402Z" fill="white"/>
<path d="M36.9677 7.19946C36.9677 8.56138 37.5456 9.95242 39.3645 9.95242C40.2605 9.95242 40.89 9.37674 41.3626 8.90186L41.8801 9.39018C41.5266 9.99336 41.0173 10.4903 40.4056 10.8289C39.7939 11.1674 39.1024 11.3351 38.4036 11.3143C35.7156 11.3143 34.777 9.36106 34.777 7.42346C34.777 5.27754 36.0045 3.32202 38.4036 3.32202C40.8026 3.32202 41.7479 5.20138 41.7479 7.19946H36.9677ZM39.5572 6.46026C39.5572 5.42538 39.425 4.06346 38.2557 4.06346C37.0865 4.06346 36.9677 5.42538 36.9677 6.46026H39.5572Z" fill="white"/>
<path d="M43.2733 4.9505C43.2733 4.37258 42.9777 4.24041 42.3773 4.21129V3.58858L45.3386 3.32202V4.71306C45.3386 4.77354 45.352 4.78698 45.3834 4.78698C45.4148 4.78698 45.4864 4.71306 45.6074 4.5361C46.1562 3.78122 46.658 3.32202 47.489 3.32202C48.385 3.32202 48.9674 3.91562 48.9674 4.74442C48.9674 5.48362 48.4948 6.01674 47.7847 6.01674C47.5308 6.025 47.2781 5.97918 47.0433 5.88234V5.58666C47.0433 5.13866 46.8954 4.83178 46.5549 4.83178C45.9053 4.83178 45.4349 6.16458 45.4349 7.25994V9.5985C45.4349 10.2055 45.7306 10.3668 46.6781 10.3982V11.1374H42.3549V10.3982C42.9485 10.3668 43.2509 10.2638 43.2509 9.72618L43.2733 4.9505Z" fill="white"/>
<path d="M53.6065 11.1866V10.5146C54.834 10.434 55.0848 10.2615 55.0848 9.12805V2.22886C53.3533 2.22886 52.6724 2.85606 52.2736 4.45318H51.474L51.5927 1.45605C51.9623 1.48293 52.4887 1.50981 53.0868 1.52325C53.6848 1.53669 54.3457 1.56358 54.9818 1.56358H57.6698C58.9556 1.56358 60.2884 1.50981 61.0589 1.45605L61.1754 4.45318H60.378C59.977 2.85606 59.296 2.22886 57.5645 2.22886V9.12805C57.5645 10.2615 57.8177 10.434 59.0452 10.5146V11.1866H53.6065Z" fill="white"/>
<path d="M65.9175 11.1866V10.4474C66.3655 10.4182 66.6567 10.313 66.6567 9.77536V6.03456C66.6567 5.19232 66.3162 4.74656 65.5905 4.74656C65.3634 4.76028 65.1415 4.81997 64.9382 4.92201C64.7349 5.02404 64.5544 5.1663 64.4077 5.34016V9.77984C64.4077 10.3264 64.7034 10.4317 65.147 10.4518V11.1866H61.4173V10.4474C61.9213 10.4182 62.217 10.313 62.217 9.77536V1.62848C62.217 1.05056 61.9213 0.9184 61.321 0.88928V0.266561L64.3988 0V4.30752C64.3988 4.36576 64.4122 4.41056 64.457 4.41056C64.5018 4.41056 64.5175 4.39488 64.6945 4.21792C65.2457 3.69084 65.9748 3.39021 66.7373 3.37568C68.3949 3.37568 68.8385 4.5584 68.8385 6.27648V9.76864C68.8385 10.3152 69.1341 10.4205 69.6381 10.4406V11.1866H65.9175Z" fill="white"/>
<path d="M72.0887 7.25317C72.0887 8.61285 72.6666 10.0061 74.4877 10.0061C75.3837 10.0061 76.0109 9.42821 76.4858 8.95333L77.0033 9.44165C76.6494 10.045 76.1397 10.542 75.5276 10.8806C74.9156 11.2191 74.2237 11.3867 73.5245 11.3658C70.8365 11.3658 69.898 9.41253 69.898 7.47493C69.898 5.32901 71.1277 3.37573 73.5245 3.37573C75.9213 3.37573 76.8689 5.25509 76.8689 7.25317H72.0887ZM74.6781 6.51173C74.6781 5.47685 74.546 4.11493 73.3767 4.11493C72.2074 4.11493 72.0887 5.47685 72.0887 6.51173H74.6781Z" fill="white"/>
<path d="M78.3943 5.00197C78.3943 4.42629 78.0986 4.29189 77.4983 4.26277V3.64005L80.4573 3.37573V4.76677C80.4573 4.82501 80.473 4.84069 80.5021 4.84069C80.5312 4.84069 80.6052 4.76677 80.7396 4.58757C81.2861 3.83269 81.7901 3.37573 82.6189 3.37573C83.5149 3.37573 84.0996 3.96709 84.0996 4.79589C84.0996 5.53509 83.6247 6.06821 82.9146 6.06821C82.6616 6.07686 82.4097 6.03181 82.1754 5.93605V5.63813C82.1754 5.19013 82.0276 4.88325 81.6871 4.88325C81.0352 4.88325 80.5671 6.21605 80.5671 7.31141V9.64997C80.5671 10.257 80.8628 10.4205 81.8103 10.4496V11.1866H77.5072V10.4474C78.0986 10.4183 78.4032 10.313 78.4032 9.77541L78.3943 5.00197Z" fill="white"/>
<path d="M91.8343 11.1866C91.2824 11.2921 90.7227 11.3513 90.161 11.3635C89.3031 11.3635 89.0813 11.0835 88.9335 10.7274C88.8887 10.6243 88.8887 10.5504 88.8439 10.5504C88.7991 10.5504 88.77 10.6086 88.5773 10.743C87.9748 11.1623 87.2548 11.3796 86.521 11.3635C85.056 11.3635 84.2272 10.4182 84.2272 9.2176C84.2272 7.6944 85.3226 7.36736 87.0227 6.87904C88.8595 6.3616 88.9335 6.36161 88.9335 5.41409C88.9335 4.46657 88.696 4.11265 87.9568 4.11265C87.2602 4.11265 86.9802 4.54048 86.9802 5.19232C86.9808 5.41015 87.0363 5.62431 87.1415 5.81504C86.8112 6.09463 86.3915 6.24644 85.9587 6.24288C85.2621 6.24288 84.7895 5.82848 84.7895 5.12288C84.7895 3.9536 86.2096 3.37793 87.7015 3.37793C89.6413 3.37793 91.0032 3.87969 91.0032 5.92257V9.57825C91.0032 10.4742 91.122 10.5392 91.8321 10.5392L91.8343 11.1866ZM88.9223 7.05825C87.1908 7.66529 86.5232 8.00577 86.5232 9.13025C86.5124 9.27748 86.5332 9.42532 86.5843 9.56384C86.6353 9.70237 86.7154 9.82837 86.8191 9.9334C86.9229 10.0384 87.0479 10.12 87.1858 10.1727C87.3237 10.2255 87.4712 10.2481 87.6186 10.239C88.64 10.239 88.9223 9.32288 88.9223 8.22304V7.05825Z" fill="white"/>
<path d="M92.0269 13.9999V13.2607C92.6183 13.2316 92.9229 13.1286 92.9229 12.5887V5.00184C92.9229 4.42616 92.6273 4.29176 92.0269 4.26264V3.63992L95.1047 3.3756V4.12824C95.1047 4.18872 95.1338 4.21784 95.1652 4.21784C95.2587 4.16762 95.3434 4.10256 95.4161 4.0252C95.8708 3.59497 96.4769 3.36154 97.1028 3.3756C99.056 3.3756 100.064 5.0332 100.064 7.07384C100.064 9.56024 98.6573 11.3657 96.5271 11.3657C96.0343 11.3679 95.5477 11.2567 95.1047 11.0409V12.5798C95.1047 13.1286 95.4004 13.2316 96.3479 13.2518V13.991L92.0269 13.9999ZM95.1047 9.64984C95.1047 10.1225 95.4004 10.4786 96.0388 10.4786C97.1924 10.4786 97.7546 9.30936 97.7546 7.50392C97.7546 5.75672 97.1185 4.73528 96.0813 4.73528C95.7118 4.74408 95.3607 4.89868 95.1047 5.16536V9.64984Z" fill="white"/>
<path d="M108.545 4.29193C107.982 4.39497 107.774 4.57417 107.286 5.65385L104.179 12.4321C103.691 13.4827 102.92 14.0001 102.107 14.0001C101.763 14.0086 101.429 13.8817 101.178 13.6467C100.927 13.4116 100.778 13.0873 100.763 12.7435C100.774 12.3175 100.924 11.9068 101.191 11.5742C101.56 11.9438 101.975 12.226 102.508 12.226C102.731 12.235 102.954 12.1867 103.153 12.0855C103.353 11.9843 103.523 11.8338 103.648 11.6481C103.973 11.218 104.018 11.0993 104.018 10.9962C104.014 10.9121 103.988 10.8304 103.944 10.7588L101.368 5.26857C101.043 4.57417 100.866 4.37257 100.333 4.29193V3.55273H104.448V4.29193C103.841 4.29193 103.552 4.36585 103.552 4.72201C103.552 4.95945 103.597 5.12073 103.847 5.65385L104.9 7.91849C105.032 8.19849 105.077 8.30377 105.165 8.30377C105.252 8.30377 105.312 8.24329 105.476 7.82889L106.291 5.77257C106.42 5.47027 106.504 5.15122 106.542 4.82505C106.542 4.37705 106.246 4.29193 105.646 4.29193V3.55273H108.558L108.545 4.29193Z" fill="white"/>
<path d="M138.003 2.40588C138.756 2.40588 139.367 1.91756 139.367 1.315C139.367 0.71244 138.756 0.224121 138.003 0.224121C137.25 0.224121 136.639 0.71244 136.639 1.315C136.639 1.91756 137.248 2.40588 138.003 2.40588Z" fill="white"/>
<path d="M111.085 8.16474C110.906 8.6441 110.552 9.45722 110.552 9.8425C110.552 10.4428 111.04 10.5145 111.824 10.5145V11.1865H108.24V10.5145C108.937 10.4876 109.201 10.2076 109.499 9.51546L112.205 3.10458C112.469 2.53911 112.693 1.95606 112.877 1.35962H114.326C114.521 2.04196 114.763 2.70966 115.052 3.3577L117.48 8.81882C118.056 10.1225 118.376 10.4159 119.109 10.5235V11.1955H114.075V10.5235C114.875 10.5235 115.348 10.4563 115.348 9.88282C115.348 9.3497 114.933 8.60378 114.741 8.16474H111.085ZM114.413 7.36506L112.933 3.88858C112.89 3.79674 112.89 3.76986 112.83 3.76986C112.769 3.76986 112.785 3.7833 112.74 3.88858L111.381 7.36506H114.413Z" fill="white"/>
<path d="M124.301 11.3658V10.5818C124.301 10.4944 124.272 10.463 124.243 10.463C124.213 10.463 124.169 10.5078 124.124 10.537C123.863 10.806 123.549 11.0185 123.202 11.1611C122.855 11.3036 122.483 11.3733 122.108 11.3658C120.052 11.3658 119.196 9.70816 119.196 7.44352C119.196 5.59552 120.365 3.37568 122.585 3.37568C123.125 3.35111 123.663 3.45715 124.153 3.6848V1.62848C124.153 1.05056 123.857 0.9184 123.087 0.88928V0.266561L126.344 0V9.79776C126.344 10.3443 126.639 10.4496 127.24 10.4698V11.1866L124.301 11.3658ZM124.153 5.23936C124.153 4.5136 123.797 4.26272 123.176 4.26272C122.023 4.26272 121.503 5.50592 121.503 7.4144C121.503 8.55456 121.951 10.0061 123.176 10.0061C123.525 9.98576 123.862 9.87287 124.153 9.67904V5.23936Z" fill="white"/>
<path d="M135.564 4.29183C135.001 4.33663 134.75 4.61887 134.41 5.41183L131.917 11.3658H130.821L128.409 5.28415C128.129 4.58751 127.981 4.35231 127.345 4.29183V3.55264H131.469V4.29183C130.701 4.29183 130.521 4.35231 130.521 4.73983C130.563 4.93915 130.628 5.13303 130.714 5.31775L131.899 8.39552C132.018 8.72032 132.018 8.7808 132.105 8.7808C132.192 8.7808 132.21 8.72031 132.342 8.37983L133.348 5.69183C133.453 5.41661 133.518 5.12766 133.541 4.83392C133.541 4.31648 133.274 4.27167 132.667 4.27167V3.53247H135.579L135.564 4.29183Z" fill="white"/>
<path d="M136.157 11.1866V10.4474C136.749 10.4161 137.053 10.313 137.053 9.77541V5.00197C137.053 4.42629 136.757 4.29189 136.157 4.26277V3.64005L139.235 3.37573V9.76869C139.235 10.3153 139.533 10.4183 140.131 10.4407V11.1866H136.157Z" fill="white"/>
<path d="M141.175 8.55461H141.827C142.004 9.08773 142.434 10.6266 143.928 10.6266C144.801 10.6266 145.245 10.2122 145.245 9.58949C145.245 7.84453 141.101 8.69349 141.101 5.74341C141.101 4.50021 142.122 3.37573 143.789 3.37573C144.869 3.37573 145.283 3.70053 145.52 3.70053C145.603 3.69966 145.684 3.68053 145.758 3.6445C145.832 3.60847 145.897 3.55646 145.948 3.49221H146.6V5.86213H145.832C145.653 5.19013 145.196 4.11493 143.863 4.11493C143.191 4.11493 142.828 4.51365 142.828 4.98853C142.828 6.60133 147.084 5.88453 147.084 8.77637C147.084 10.3757 145.722 11.3658 143.903 11.3658C143.029 11.3658 142.378 11.0119 142.156 11.0119C142.091 11.0083 142.026 11.023 141.968 11.0542C141.911 11.0855 141.863 11.1321 141.831 11.1889H141.179L141.175 8.55461Z" fill="white"/>
<path d="M154.969 7.37844C154.969 9.42132 153.755 11.3746 151.358 11.3746C148.961 11.3746 147.747 9.42132 147.747 7.37844C147.747 5.33556 148.961 3.38452 151.358 3.38452C153.755 3.38452 154.969 5.32884 154.969 7.37844ZM150.061 7.37844C150.061 9.0674 150.209 10.6354 151.362 10.6354C152.516 10.6354 152.664 9.0674 152.664 7.37844C152.664 5.68948 152.516 4.12372 151.362 4.12372C150.209 4.12372 150.061 5.68276 150.061 7.37844Z" fill="white"/>
<path d="M156.288 5.00197C156.288 4.42629 155.99 4.29189 155.392 4.26277V3.64005L158.353 3.37573V4.76677C158.353 4.82501 158.367 4.84069 158.396 4.84069C158.425 4.84069 158.501 4.76677 158.633 4.58757C159.182 3.83269 159.684 3.37573 160.513 3.37573C161.409 3.37573 161.993 3.96709 161.993 4.79589C161.993 5.53509 161.518 6.06821 160.808 6.06821C160.555 6.07686 160.303 6.03181 160.069 5.93605V5.63813C160.069 5.19013 159.921 4.88325 159.581 4.88325C158.929 4.88325 158.461 6.21605 158.461 7.31141V9.64997C158.461 10.257 158.757 10.4183 159.702 10.4496V11.1866H155.381V10.4474C155.972 10.4161 156.277 10.313 156.277 9.77541L156.288 5.00197Z" fill="white"/>
</g>
<defs>
<clipPath id="clip0_1_222">
<rect width="161.95" height="14" fill="white" transform="translate(0.050293)"/>
</clipPath>
</defs>
</svg>
