<svg width="104" height="68" viewBox="0 0 104 68" fill="none" xmlns="http://www.w3.org/2000/svg">
<path d="M6.81527 62.0913C6.80467 62.0783 6.7914 62.0678 6.77638 62.0605C6.76136 62.0532 6.74495 62.0492 6.72829 62.049H6.54043C6.50669 62.0512 6.47457 62.0644 6.44886 62.0867C6.42315 62.1089 6.40523 62.139 6.39779 62.1725L5.61502 66.6761C5.61202 66.6923 5.61265 66.7089 5.61687 66.7248C5.62108 66.7407 5.62878 66.7554 5.63938 66.7678C5.6503 66.7802 5.66372 66.7901 5.67872 66.7968C5.69372 66.8034 5.70996 66.8068 5.72635 66.8066H5.90378C5.93756 66.8064 5.97024 66.7944 5.99625 66.7725C6.02225 66.7506 6.03998 66.7203 6.04642 66.6867L6.83266 62.183C6.83893 62.1513 6.83269 62.1184 6.81527 62.0913V62.0913ZM9.86284 62.0913C9.85224 62.0783 9.83897 62.0678 9.82395 62.0605C9.80893 62.0532 9.79252 62.0492 9.77587 62.049H9.59496C9.56147 62.0508 9.52955 62.0639 9.50431 62.0863C9.47908 62.1087 9.46199 62.139 9.4558 62.1725L8.7948 65.9637L7.98768 62.1725C7.98135 62.1385 7.96375 62.1077 7.93781 62.0853C7.91187 62.0628 7.87914 62.05 7.84504 62.049H7.58412C7.55002 62.05 7.51729 62.0628 7.49135 62.0853C7.46541 62.1077 7.44781 62.1385 7.44148 62.1725L6.65871 66.6761C6.65498 66.692 6.65492 66.7085 6.65854 66.7244C6.66216 66.7403 6.66937 66.7552 6.67959 66.7678C6.69065 66.78 6.70409 66.7898 6.71906 66.7964C6.73403 66.8031 6.75021 66.8066 6.76656 66.8066H6.94747C6.98125 66.8064 7.01393 66.7944 7.03993 66.7725C7.06594 66.7506 7.08367 66.7203 7.09011 66.6867L7.74763 62.906L8.56867 66.6902C8.57637 66.7229 8.59455 66.7521 8.62037 66.7731C8.64618 66.7942 8.67817 66.806 8.7113 66.8066H8.9757C9.00914 66.8052 9.04119 66.7927 9.06695 66.771C9.09272 66.7494 9.11077 66.7197 9.11834 66.6867L9.90111 62.183C9.90235 62.1658 9.89952 62.1485 9.89287 62.1325C9.88622 62.1166 9.87592 62.1025 9.86284 62.0913V62.0913ZM13.8463 64.1016H12.6251C12.6197 64.1041 12.6137 64.1054 12.6077 64.1054C12.6017 64.1054 12.5958 64.1041 12.5903 64.1016C12.5878 64.0954 12.5864 64.0889 12.5864 64.0822C12.5864 64.0755 12.5878 64.0689 12.5903 64.0628L12.8513 62.5604C12.8552 62.5426 12.8648 62.5267 12.8787 62.5152C12.8926 62.5037 12.9099 62.4973 12.9278 62.4969H14.295C14.3287 62.4958 14.361 62.4828 14.3863 62.4603C14.4117 62.4379 14.4286 62.4072 14.4342 62.3735L14.4655 62.1971C14.4692 62.1813 14.4693 62.1647 14.4657 62.1488C14.4621 62.1329 14.4549 62.1181 14.4446 62.1054C14.434 62.0924 14.4208 62.0819 14.4057 62.0746C14.3907 62.0673 14.3743 62.0634 14.3577 62.0631H12.6182C12.5844 62.0653 12.5523 62.0785 12.5266 62.1008C12.5009 62.123 12.483 62.1531 12.4755 62.1866L11.6893 66.6761C11.6863 66.6923 11.6869 66.7089 11.6911 66.7248C11.6954 66.7407 11.703 66.7554 11.7136 66.7678C11.7246 66.7802 11.738 66.7901 11.753 66.7968C11.768 66.8034 11.7842 66.8068 11.8006 66.8066H13.5575C13.5913 66.8064 13.624 66.7944 13.65 66.7725C13.676 66.7506 13.6937 66.7203 13.7001 66.6867L13.7314 66.5104C13.7347 66.4942 13.7342 66.4775 13.73 66.4616C13.7258 66.4457 13.7179 66.431 13.7071 66.4187C13.697 66.405 13.6839 66.3941 13.6687 66.3867C13.6536 66.3793 13.6369 66.3758 13.6201 66.3763H12.2285C12.2231 66.3789 12.2171 66.3802 12.2111 66.3802C12.2051 66.3802 12.1992 66.3789 12.1937 66.3763C12.1909 66.3703 12.1895 66.3636 12.1895 66.3569C12.1895 66.3502 12.1909 66.3436 12.1937 66.3375L12.4929 64.6094C12.4978 64.5922 12.5078 64.5769 12.5214 64.5656C12.5351 64.5543 12.5519 64.5474 12.5695 64.546H13.7906C13.8244 64.5458 13.8571 64.5337 13.8831 64.5119C13.9091 64.49 13.9268 64.4597 13.9332 64.426L13.9645 64.2462C13.9683 64.2303 13.9683 64.2138 13.9647 64.1978C13.9611 64.1819 13.9539 64.1671 13.9437 64.1545C13.9329 64.1383 13.9184 64.125 13.9014 64.1158C13.8845 64.1066 13.8655 64.1017 13.8463 64.1016V64.1016ZM72.9887 64.1016H71.7641C71.7585 64.1039 71.7526 64.1051 71.7467 64.1051C71.7407 64.1051 71.7348 64.1039 71.7293 64.1016C71.7267 64.0954 71.7254 64.0889 71.7254 64.0822C71.7254 64.0755 71.7267 64.0689 71.7293 64.0628L71.9902 62.5604C71.9941 62.5426 72.0037 62.5267 72.0176 62.5152C72.0315 62.5037 72.0488 62.4973 72.0667 62.4969H73.4305C73.4646 62.4959 73.4973 62.4831 73.5232 62.4607C73.5492 62.4382 73.5668 62.4075 73.5731 62.3735L73.6044 62.1971C73.6065 62.181 73.6055 62.1646 73.6013 62.1488C73.5971 62.1331 73.5899 62.1183 73.5801 62.1054C73.5695 62.0924 73.5562 62.0819 73.5412 62.0746C73.5262 62.0673 73.5098 62.0634 73.4931 62.0631H71.7536C71.7195 62.0641 71.6868 62.0769 71.6609 62.0994C71.6349 62.1218 71.6173 62.1526 71.611 62.1866L70.8247 66.6902C70.8226 66.7064 70.8237 66.7228 70.8279 66.7385C70.832 66.7543 70.8393 66.769 70.8491 66.7819C70.8719 66.8059 70.9032 66.8199 70.9361 66.8207H72.6964C72.73 66.8199 72.7624 66.8076 72.7883 66.7858C72.8141 66.7641 72.832 66.7341 72.8391 66.7008L72.8704 66.5245C72.8729 66.5083 72.872 66.4918 72.8678 66.476C72.8636 66.4602 72.8562 66.4455 72.846 66.4328C72.8359 66.4191 72.8228 66.4082 72.8076 66.4008C72.7925 66.3934 72.7758 66.3899 72.759 66.3904H71.3675C71.362 66.393 71.3561 66.3943 71.3501 66.3943C71.3441 66.3943 71.3381 66.393 71.3327 66.3904C71.3327 66.3904 71.3327 66.3693 71.3327 66.3516L71.6353 64.6235C71.6385 64.6061 71.6475 64.5903 71.6608 64.5787C71.6741 64.5672 71.6909 64.5606 71.7084 64.5601H72.933C72.9666 64.5592 72.999 64.5469 73.0248 64.5252C73.0507 64.5034 73.0686 64.4735 73.0756 64.4402L73.1069 64.2603C73.1099 64.2441 73.1093 64.2275 73.1051 64.2116C73.1009 64.1957 73.0932 64.181 73.0826 64.1686C73.0741 64.15 73.061 64.1341 73.0445 64.1223C73.028 64.1106 73.0087 64.1034 72.9887 64.1016V64.1016ZM16.0241 61.9397C14.8899 61.9397 14.5281 63.2834 14.3507 64.292C14.2185 65.0644 14.0341 66.1189 14.4586 66.6303C14.5453 66.7288 14.653 66.806 14.7736 66.8561C14.8941 66.9062 15.0243 66.9279 15.1543 66.9195C16.0276 66.9195 16.5459 66.0519 16.6781 65.1914V65.1526H16.365C16.3357 65.1531 16.3071 65.162 16.2825 65.1782C16.2579 65.1944 16.2383 65.2173 16.2259 65.2442C16.0971 65.8262 15.8258 66.4892 15.2483 66.4892C15.1654 66.4946 15.0824 66.4806 15.0058 66.4482C14.9291 66.4157 14.8609 66.3658 14.8064 66.3023C14.4899 65.9179 14.6499 65.0115 14.7438 64.4719L14.7682 64.3308C14.8795 63.696 15.1161 62.3699 15.9371 62.3699C16.0139 62.3649 16.0908 62.3772 16.1624 62.4058C16.234 62.4345 16.2984 62.4788 16.3511 62.5357C16.509 62.7855 16.5674 63.0868 16.5146 63.3786C16.5219 63.4041 16.5369 63.4267 16.5575 63.4432C16.5781 63.4596 16.6032 63.4691 16.6294 63.4703H16.9321V63.4421C16.9826 63.2382 16.9894 63.0257 16.9522 62.8189C16.915 62.6121 16.8346 62.4157 16.7164 62.243C16.6298 62.1444 16.5229 62.0661 16.4033 62.0137C16.2837 61.9613 16.1543 61.9361 16.0241 61.9397V61.9397ZM19.5692 62.3594L19.597 62.183C19.6007 62.1672 19.6008 62.1506 19.5972 62.1347C19.5935 62.1188 19.5863 62.1039 19.5761 62.0913C19.5655 62.0783 19.5522 62.0678 19.5372 62.0605C19.5222 62.0532 19.5058 62.0492 19.4891 62.049H17.4018C17.3678 62.0506 17.3354 62.0636 17.3096 62.086C17.2838 62.1083 17.266 62.1388 17.2591 62.1725L17.2278 62.3488C17.2245 62.3649 17.225 62.3816 17.2293 62.3976C17.2335 62.4135 17.2413 62.4282 17.2522 62.4405C17.2622 62.4541 17.2754 62.4651 17.2905 62.4724C17.3057 62.4798 17.3223 62.4834 17.3391 62.4828H18.1115C18.1169 62.4803 18.1229 62.479 18.1289 62.479C18.1349 62.479 18.1408 62.4803 18.1463 62.4828C18.1488 62.4889 18.1502 62.4955 18.1502 62.5022C18.1502 62.5089 18.1488 62.5155 18.1463 62.5216L17.4261 66.662C17.424 66.6782 17.4251 66.6946 17.4292 66.7103C17.4334 66.7261 17.4406 66.7408 17.4505 66.7537C17.4614 66.7661 17.4748 66.776 17.4898 66.7826C17.5048 66.7893 17.521 66.7927 17.5374 66.7925H17.7183C17.7518 66.7911 17.7838 66.7786 17.8096 66.7569C17.8354 66.7353 17.8534 66.7056 17.861 66.6726L18.5811 62.5322C18.585 62.5144 18.5947 62.4985 18.6086 62.487C18.6224 62.4755 18.6397 62.4691 18.6577 62.4687H19.4126C19.4471 62.4717 19.4817 62.4624 19.5102 62.4425C19.5388 62.4225 19.5596 62.3932 19.5692 62.3594V62.3594ZM20.2371 62.049H20.0562C20.0225 62.0512 19.9903 62.0644 19.9646 62.0867C19.9389 62.1089 19.921 62.139 19.9136 62.1725L19.1308 66.6761C19.1278 66.6923 19.1284 66.7089 19.1326 66.7248C19.1369 66.7407 19.1446 66.7554 19.1552 66.7678C19.1661 66.7802 19.1795 66.7901 19.1945 66.7968C19.2095 66.8034 19.2257 66.8068 19.2421 66.8066H19.4126C19.446 66.8052 19.4781 66.7927 19.5038 66.771C19.5296 66.7494 19.5477 66.7197 19.5552 66.6867L20.338 62.183C20.3401 62.1669 20.3391 62.1504 20.3349 62.1347C20.3307 62.119 20.3235 62.1042 20.3137 62.0913C20.2929 62.0715 20.2656 62.0602 20.2371 62.0596V62.049ZM22.9124 62.2359C22.8218 62.1343 22.7095 62.0549 22.5842 62.0035C22.4589 61.9522 22.3237 61.9304 22.1888 61.9397C21.0512 61.9397 20.6859 63.2834 20.5085 64.292C20.3832 65.0185 20.1954 66.1118 20.6198 66.6303C20.7069 66.7284 20.8147 66.8053 20.9351 66.8554C21.0556 66.9055 21.1856 66.9274 21.3156 66.9195C22.5993 66.9195 22.8707 65.3677 23.0168 64.5354C23.1525 63.7806 23.3334 62.7438 22.9124 62.2359ZM22.6098 64.4155V64.5001C22.488 65.2055 22.2619 66.4892 21.4339 66.4892C21.3478 66.4959 21.2615 66.4815 21.1821 66.4471C21.1028 66.4127 21.0328 66.3594 20.9781 66.2917C20.6581 65.9073 20.8181 65.0009 20.912 64.4613V64.3873C21.0268 63.7277 21.2599 62.3594 22.0949 62.3594C22.1753 62.3549 22.2556 62.3691 22.3298 62.4009C22.4039 62.4327 22.4699 62.4812 22.5228 62.5428C22.8637 62.9483 22.6967 63.9041 22.6098 64.4155ZM26.2348 62.0596H26.0539C26.0202 62.0618 25.9881 62.075 25.9624 62.0973C25.9367 62.1195 25.9187 62.1496 25.9113 62.183L25.2538 65.9743L24.4467 62.183C24.4396 62.1488 24.4213 62.1179 24.3948 62.0955C24.3683 62.0731 24.3351 62.0604 24.3005 62.0596H24.0292C23.9957 62.0614 23.9638 62.0745 23.9385 62.0969C23.9133 62.1193 23.8962 62.1496 23.89 62.183L23.1073 66.6867C23.1035 66.7026 23.1035 66.7191 23.1071 66.735C23.1107 66.7509 23.1179 66.7658 23.1281 66.7784C23.1391 66.7908 23.1525 66.8006 23.1675 66.8073C23.1825 66.814 23.1987 66.8174 23.2151 66.8172H23.396C23.4296 66.8164 23.462 66.8041 23.4879 66.7823C23.5137 66.7606 23.5316 66.7306 23.5387 66.6973L24.1962 62.9166L25.0137 66.7008C25.0221 66.7338 25.041 66.763 25.0674 66.784C25.0938 66.8051 25.1263 66.8167 25.1598 66.8172H25.4208C25.4542 66.8158 25.4863 66.8032 25.512 66.7816C25.5378 66.7599 25.5558 66.7303 25.5634 66.6973L26.3462 62.1936C26.3483 62.1775 26.3472 62.161 26.343 62.1453C26.3389 62.1296 26.3317 62.1148 26.3218 62.1019C26.3112 62.0889 26.298 62.0784 26.2829 62.071C26.2679 62.0637 26.2515 62.0598 26.2348 62.0596V62.0596ZM11.9189 62.1936C11.9219 62.1775 11.9213 62.1608 11.9171 62.1449C11.9128 62.1291 11.9052 62.1144 11.8946 62.1019C11.8843 62.0893 11.8716 62.0791 11.8572 62.0718C11.8429 62.0645 11.8271 62.0603 11.8111 62.0596H11.6302C11.5961 62.0606 11.5633 62.0734 11.5374 62.0958C11.5114 62.1183 11.4938 62.1491 11.4875 62.183V62.183L11.164 64.0381L10.8648 65.7521C10.7987 66.1471 10.7013 66.4998 10.3012 66.4998C10.2497 66.5036 10.198 66.4958 10.1499 66.4769C10.1017 66.458 10.0584 66.4285 10.0229 66.3904C9.92306 66.2064 9.8969 65.9905 9.94981 65.7874C9.94981 65.6957 9.97765 65.6075 9.99504 65.5229V65.477C9.999 65.4694 10.0011 65.4609 10.0011 65.4523C10.0011 65.4437 9.999 65.4353 9.99504 65.4276C9.98133 65.4141 9.96494 65.4036 9.94696 65.3969C9.92897 65.3902 9.90978 65.3875 9.89067 65.3888H9.70629C9.6725 65.389 9.63983 65.4011 9.61382 65.4229C9.58781 65.4448 9.57008 65.4751 9.56365 65.5088V65.5088L9.5219 65.7415C9.5219 65.7592 9.5219 65.7768 9.5219 65.7944C9.48434 65.9517 9.47885 66.1151 9.50577 66.2746C9.53269 66.4341 9.59145 66.5863 9.67846 66.722C9.74572 66.7958 9.82844 66.8535 9.92054 66.8907C10.0126 66.9279 10.1118 66.9438 10.2107 66.9371C10.8126 66.9371 11.1675 66.5668 11.2997 65.798L11.7589 63.0859L11.9189 62.1936ZM29.345 64.1122H28.11C28.1046 64.1147 28.0986 64.116 28.0926 64.116C28.0866 64.116 28.0807 64.1147 28.0752 64.1122C28.0716 64.0995 28.0716 64.086 28.0752 64.0734L28.3396 62.571C28.3435 62.5532 28.3532 62.5373 28.3671 62.5258C28.3809 62.5143 28.3982 62.5078 28.4162 62.5075H29.8077C29.8418 62.5065 29.8746 62.4937 29.9005 62.4712C29.9265 62.4488 29.944 62.418 29.9504 62.3841L29.9817 62.2077C29.9838 62.1916 29.9827 62.1751 29.9786 62.1594C29.9744 62.1437 29.9672 62.1289 29.9573 62.116C29.9467 62.103 29.9335 62.0925 29.9185 62.0851C29.9034 62.0778 29.887 62.0739 29.8704 62.0737H28.11C28.0763 62.0759 28.0442 62.0891 28.0184 62.1114C27.9927 62.1336 27.9748 62.1637 27.9674 62.1971L27.1846 66.7008C27.1825 66.717 27.1836 66.7334 27.1877 66.7491C27.1919 66.7649 27.1991 66.7796 27.209 66.7925C27.2199 66.8049 27.2333 66.8147 27.2483 66.8214C27.2633 66.8281 27.2795 66.8315 27.2959 66.8313H27.4768C27.5103 66.8299 27.5423 66.8174 27.5681 66.7957C27.5938 66.774 27.6119 66.7444 27.6195 66.7114L27.9674 64.62C27.9723 64.6028 27.9822 64.5875 27.9959 64.5762C28.0095 64.5648 28.0263 64.558 28.0439 64.5565H29.2685C29.3017 64.5555 29.3335 64.5431 29.3588 64.5213C29.3841 64.4995 29.4014 64.4697 29.4077 64.4366L29.439 64.2568C29.4427 64.2409 29.4428 64.2243 29.4391 64.2084C29.4355 64.1925 29.4283 64.1777 29.4181 64.1651C29.4112 64.1498 29.4011 64.1361 29.3884 64.1252C29.3758 64.1142 29.361 64.1062 29.345 64.1016V64.1122ZM32.2117 62.2465C32.1203 62.1448 32.0075 62.0654 31.8816 62.0141C31.7557 61.9628 31.62 61.941 31.4846 61.9503C30.347 61.9503 29.9817 63.294 29.8077 64.3026C29.6825 65.0291 29.4912 66.1224 29.9191 66.6408C30.0058 66.7394 30.1136 66.8166 30.2341 66.8667C30.3546 66.9168 30.4848 66.9385 30.6149 66.93C31.9021 66.93 32.17 65.3783 32.3161 64.546C32.4518 63.7806 32.6327 62.7438 32.2117 62.2359V62.2465ZM31.9056 64.4296V64.5107C31.7838 65.216 31.5577 66.4998 30.7297 66.4998C30.6468 66.5052 30.5638 66.4912 30.4872 66.4587C30.4105 66.4263 30.3423 66.3764 30.2878 66.3129C29.9713 65.9284 30.1313 65.0221 30.2252 64.4825V64.4084C30.3365 63.7489 30.5731 62.3805 31.4046 62.3805C31.485 62.3755 31.5655 62.3895 31.6398 62.4213C31.714 62.4531 31.78 62.5019 31.8325 62.5639C32.1595 62.9483 31.996 63.9041 31.9056 64.419V64.4296ZM34.0242 62.0596H33.3285C33.2947 62.0618 33.2626 62.075 33.2369 62.0973C33.2112 62.1195 33.1933 62.1496 33.1858 62.183L33.1649 62.3065L33.1441 62.4193L32.403 66.6867C32.4 66.7028 32.4007 66.7195 32.4049 66.7354C32.4091 66.7512 32.4168 66.7659 32.4274 66.7784C32.4383 66.7908 32.4517 66.8006 32.4667 66.8073C32.4817 66.814 32.498 66.8174 32.5144 66.8172H32.6953C32.7285 66.8162 32.7603 66.8038 32.7856 66.782C32.8109 66.7602 32.8281 66.7303 32.8344 66.6973L33.0258 65.6004L33.1893 64.6764C33.1918 64.6587 33.2006 64.6425 33.2141 64.6308C33.2275 64.6191 33.2447 64.6128 33.2624 64.613H33.5476C33.7924 64.5757 34.042 64.6364 34.2434 64.7822C34.291 64.8479 34.3243 64.923 34.3411 65.0026C34.3579 65.0823 34.3578 65.1646 34.3408 65.2442C34.3408 65.3148 34.32 65.41 34.306 65.5158C34.2215 65.9357 34.2004 66.3662 34.2434 66.7925V66.8172H34.5913C34.6574 66.8172 34.7166 66.7819 34.7235 66.7361V66.7114H34.7026C34.567 66.6197 34.6644 66.006 34.7026 65.7239C34.7026 65.6604 34.7026 65.604 34.7235 65.5687C34.807 65.0644 34.8453 64.5953 34.4174 64.4155C34.4646 64.3975 34.51 64.375 34.553 64.3485V64.3485L34.6122 64.3026L34.6748 64.2568C34.7131 64.2226 34.7481 64.1849 34.7792 64.1439C34.8105 64.1016 34.8418 64.0593 34.8696 64.0134V63.9958C34.8975 63.9499 34.9218 63.9041 34.9462 63.8547C34.9705 63.8053 34.9462 63.8547 34.9462 63.8547L35.0088 63.7031C35.0088 63.6466 35.0436 63.5937 35.0575 63.5444C35.0724 63.4923 35.084 63.4392 35.0923 63.3856C35.1369 63.231 35.1472 63.0684 35.1225 62.9092C35.0979 62.7501 35.0389 62.5985 34.9497 62.4652C34.8332 62.3341 34.6903 62.2301 34.5306 62.1601C34.3709 62.0901 34.1982 62.0558 34.0242 62.0596V62.0596ZM34.72 63.3222C34.7041 63.5003 34.6397 63.6704 34.5341 63.8136C34.4284 63.9568 34.2857 64.0675 34.1217 64.1333H34.0834C34.0378 64.1465 33.9913 64.1559 33.9442 64.1615H33.7668H33.3285C33.3212 64.1617 33.314 64.1602 33.3073 64.1571C33.3007 64.1541 33.2949 64.1496 33.2902 64.1439C33.2874 64.1384 33.286 64.1324 33.286 64.1263C33.286 64.1201 33.2874 64.1141 33.2902 64.1086L33.4189 63.368L33.5615 62.5357C33.566 62.5182 33.5758 62.5027 33.5895 62.4912C33.6033 62.4798 33.6203 62.4732 33.6381 62.4722H34.0764C34.3895 62.4722 34.5739 62.5251 34.6748 62.6486C34.7292 62.7492 34.7614 62.8606 34.7692 62.975C34.777 63.0895 34.7602 63.2043 34.72 63.3116V63.3222ZM37.5032 62.1019C37.4926 62.0889 37.4793 62.0784 37.4643 62.071C37.4493 62.0637 37.4329 62.0598 37.4162 62.0596H37.2353C37.2018 62.0614 37.1699 62.0745 37.1447 62.0969C37.1195 62.1193 37.1024 62.1496 37.0962 62.183L36.3099 66.6867C36.3078 66.7028 36.3089 66.7193 36.3131 66.735C36.3172 66.7507 36.3245 66.7655 36.3343 66.7784C36.3452 66.7908 36.3586 66.8006 36.3736 66.8073C36.3886 66.814 36.4049 66.8174 36.4213 66.8172H36.6022C36.6356 66.8158 36.6676 66.8032 36.6934 66.7816C36.7192 66.7599 36.7372 66.7303 36.7448 66.6973L37.5276 62.1936C37.5323 62.1759 37.5326 62.1572 37.5283 62.1393C37.5241 62.1214 37.5154 62.1049 37.5032 62.0913V62.1019ZM40.4499 62.0596H40.269C40.2353 62.0618 40.2031 62.075 40.1774 62.0973C40.1517 62.1195 40.1338 62.1496 40.1264 62.183L39.4688 65.9743L38.6617 62.1795C38.6534 62.1462 38.6347 62.1165 38.6084 62.0948C38.582 62.0732 38.5495 62.0608 38.5156 62.0596H38.2442C38.2105 62.0618 38.1784 62.075 38.1527 62.0973C38.127 62.1195 38.109 62.1496 38.1016 62.183L37.3188 66.6867C37.3167 66.7028 37.3178 66.7193 37.322 66.735C37.3261 66.7507 37.3334 66.7655 37.3432 66.7784C37.3541 66.7908 37.3675 66.8006 37.3825 66.8073C37.3975 66.814 37.4138 66.8174 37.4302 66.8172H37.6111C37.6445 66.8158 37.6765 66.8032 37.7023 66.7816C37.7281 66.7599 37.7461 66.7303 37.7537 66.6973L38.4112 62.9166L39.2288 66.7008C39.2366 66.7341 39.2553 66.7637 39.2819 66.7848C39.3084 66.8059 39.3412 66.8173 39.3749 66.8172H39.6323C39.6661 66.817 39.6988 66.8049 39.7248 66.7831C39.7508 66.7612 39.7685 66.7309 39.775 66.6973L40.5612 62.1936C40.5633 62.1775 40.5623 62.161 40.5581 62.1453C40.5539 62.1296 40.5467 62.1148 40.5369 62.1019C40.5255 62.0879 40.5111 62.0768 40.4948 62.0695C40.4785 62.0622 40.4608 62.0588 40.4429 62.0596H40.4499ZM43.1287 62.3699L43.1565 62.1936C43.1603 62.1777 43.1603 62.1612 43.1567 62.1453C43.1531 62.1294 43.1459 62.1145 43.1357 62.1019C43.1251 62.0889 43.1118 62.0784 43.0968 62.071C43.0817 62.0637 43.0653 62.0598 43.0487 62.0596H40.9613C40.9276 62.0618 40.8954 62.075 40.8697 62.0973C40.844 62.1195 40.8261 62.1496 40.8187 62.183L40.7874 62.3594C40.7848 62.3755 40.7857 62.392 40.7899 62.4078C40.7941 62.4236 40.8015 62.4384 40.8117 62.4511C40.8218 62.4647 40.8349 62.4757 40.8501 62.483C40.8652 62.4904 40.8819 62.4939 40.8987 62.4934H41.671C41.6765 62.4908 41.6824 62.4895 41.6884 62.4895C41.6944 62.4895 41.7003 62.4908 41.7058 62.4934C41.7084 62.4995 41.7097 62.5061 41.7097 62.5128C41.7097 62.5194 41.7084 62.526 41.7058 62.5322L40.9822 66.6761C40.9784 66.692 40.9784 66.7085 40.982 66.7244C40.9856 66.7403 40.9928 66.7552 41.0031 66.7678C41.014 66.7802 41.0274 66.7901 41.0424 66.7968C41.0574 66.8034 41.0736 66.8068 41.09 66.8066H41.2709C41.3044 66.8052 41.3364 66.7927 41.3622 66.771C41.3879 66.7494 41.406 66.7197 41.4136 66.6867L42.1337 62.5463C42.1376 62.5285 42.1473 62.5126 42.1612 62.5011C42.175 62.4896 42.1923 62.4832 42.2103 62.4828H42.9826C43.0161 62.481 43.048 62.4679 43.0732 62.4455C43.0985 62.4231 43.1155 62.3928 43.1217 62.3594L43.1287 62.3699ZM47.3243 62.0596H47.0843C47.0508 62.0617 47.0186 62.073 46.991 62.0922C46.9635 62.1115 46.9416 62.138 46.9277 62.1689L45.0491 66.6832C45.0412 66.6978 45.037 66.7141 45.037 66.7308C45.037 66.7474 45.0412 66.7638 45.0491 66.7784C45.0588 66.7913 45.0715 66.8016 45.086 66.8084C45.1006 66.8152 45.1166 66.8182 45.1326 66.8172H45.2996C45.3333 66.8164 45.3662 66.8061 45.3945 66.7874C45.4228 66.7687 45.4453 66.7424 45.4596 66.7114L45.9814 65.4417C45.991 65.4233 46.0049 65.4076 46.0219 65.3959C46.0389 65.3842 46.0584 65.377 46.0789 65.3747H47.1817C47.1977 65.3747 47.2131 65.3809 47.2248 65.3921C47.2364 65.4032 47.2434 65.4185 47.2443 65.4347L47.3174 66.6937C47.3199 66.7268 47.3345 66.7578 47.3583 66.7806C47.3821 66.8034 47.4134 66.8164 47.4461 66.8172H47.634C47.6504 66.8182 47.6669 66.8151 47.6821 66.8084C47.6972 66.8017 47.7105 66.7914 47.7209 66.7784C47.733 66.7667 47.7421 66.7523 47.7476 66.7364C47.753 66.7204 47.7546 66.7034 47.7522 66.6867L47.4496 62.1866C47.4463 62.1528 47.4311 62.1214 47.4068 62.0981C47.3825 62.0748 47.3508 62.0611 47.3174 62.0596H47.3243ZM47.2095 64.9268C47.205 64.9327 47.1992 64.9374 47.1925 64.9404C47.1859 64.9435 47.1786 64.9449 47.1713 64.9445H46.2285C46.2247 64.9463 46.2205 64.9473 46.2163 64.9473C46.2121 64.9473 46.2079 64.9463 46.2041 64.9445C46.2007 64.9406 46.1988 64.9356 46.1988 64.9304C46.1988 64.9252 46.2007 64.9201 46.2041 64.9163L47.0912 62.7438L47.2269 64.8986C47.2205 64.9067 47.2121 64.9128 47.2026 64.9163L47.2095 64.9268ZM50.7929 62.1054C50.7831 62.0923 50.7705 62.0816 50.756 62.0743C50.7415 62.0669 50.7256 62.0631 50.7094 62.0631H50.5389C50.5055 62.0652 50.4732 62.0765 50.4456 62.0958C50.4181 62.115 50.3962 62.1415 50.3823 62.1725L48.7716 66.1295L48.5594 62.1901C48.5568 62.1561 48.5418 62.1242 48.5174 62.1008C48.493 62.0773 48.4608 62.0639 48.4272 62.0631H48.2289C48.2125 62.0629 48.1962 62.0663 48.1812 62.073C48.1662 62.0797 48.1528 62.0895 48.1419 62.1019C48.1302 62.1145 48.1213 62.1296 48.1159 62.146C48.1105 62.1625 48.1087 62.1799 48.1106 62.1971L48.4132 66.6973C48.4166 66.7307 48.4319 66.7616 48.4563 66.7844C48.4806 66.8071 48.5124 66.82 48.5454 66.8207H48.7716C48.8053 66.82 48.8382 66.8097 48.8665 66.791C48.8948 66.7723 48.9173 66.7459 48.9316 66.7149L50.7963 62.2007C50.8055 62.1834 50.8094 62.1639 50.8075 62.1444C50.8056 62.1249 50.7981 62.1065 50.7859 62.0913L50.7929 62.1054ZM52.4106 64.1157H51.1895C51.1834 64.1183 51.1769 64.1197 51.1703 64.1197C51.1637 64.1197 51.1572 64.1183 51.1512 64.1157C51.1486 64.1096 51.1473 64.103 51.1473 64.0963C51.1473 64.0896 51.1486 64.083 51.1512 64.0769L51.4121 62.5745C51.416 62.5568 51.4257 62.5408 51.4396 62.5293C51.4534 62.5178 51.4707 62.5114 51.4886 62.511H52.8524C52.8865 62.51 52.9192 62.4972 52.9452 62.4748C52.9711 62.4523 52.9887 62.4216 52.995 62.3876L53.0264 62.2112C53.0285 62.1951 53.0274 62.1787 53.0232 62.1629C53.019 62.1472 53.0118 62.1324 53.002 62.1195C52.9914 62.1065 52.9781 62.096 52.9631 62.0887C52.9481 62.0814 52.9317 62.0775 52.915 62.0772H51.1755C51.1412 62.0787 51.1083 62.0916 51.0819 62.1139C51.0555 62.1362 51.037 62.1667 51.0294 62.2007L50.2467 66.7043C50.2445 66.7205 50.2456 66.7369 50.2498 66.7526C50.254 66.7684 50.2612 66.7831 50.271 66.796C50.2819 66.8084 50.2954 66.8183 50.3104 66.825C50.3254 66.8317 50.3416 66.835 50.358 66.8348H52.1149C52.148 66.8338 52.1799 66.8214 52.2052 66.7996C52.2305 66.7778 52.2477 66.7479 52.254 66.7149L52.2853 66.5386C52.2891 66.5227 52.2891 66.5061 52.2855 66.4902C52.2819 66.4743 52.2747 66.4595 52.2645 66.4469C52.2544 66.4332 52.2412 66.4223 52.2261 66.4149C52.2109 66.4075 52.1943 66.404 52.1775 66.4046H50.7859C50.7798 66.4072 50.7733 66.4085 50.7668 66.4085C50.7602 66.4085 50.7537 66.4072 50.7476 66.4046C50.7448 66.3985 50.7434 66.3919 50.7434 66.3852C50.7434 66.3785 50.7448 66.3718 50.7476 66.3658L51.0468 64.6376C51.0517 64.6204 51.0617 64.6051 51.0753 64.5938C51.089 64.5825 51.1057 64.5756 51.1234 64.5742H52.348C52.3814 64.5727 52.4134 64.5602 52.4392 64.5386C52.465 64.5169 52.483 64.4873 52.4906 64.4543L52.5184 64.2744C52.5222 64.2585 52.5222 64.242 52.5186 64.2261C52.515 64.2102 52.5078 64.1953 52.4976 64.1827C52.4911 64.1615 52.4789 64.1426 52.4622 64.1283C52.4456 64.1139 52.4253 64.1046 52.4036 64.1016L52.4106 64.1157ZM55.9104 62.1054C55.8995 62.0928 55.8862 62.0825 55.8712 62.0752C55.8563 62.0679 55.84 62.0638 55.8234 62.0631H55.6425C55.6084 62.0641 55.5757 62.0769 55.5498 62.0994C55.5238 62.1218 55.5062 62.1526 55.4999 62.1866L54.8389 65.9778L54.0353 62.183C54.0265 62.15 54.0076 62.1206 53.9814 62.099C53.9551 62.0775 53.9229 62.0649 53.8891 62.0631H53.6178C53.5839 62.0647 53.5515 62.0778 53.5256 62.1001C53.4998 62.1224 53.482 62.1529 53.4751 62.1866L52.6924 66.6902C52.6894 66.7064 52.69 66.723 52.6942 66.7389C52.6984 66.7548 52.7061 66.7695 52.7167 66.7819C52.7276 66.7943 52.7411 66.8042 52.7561 66.8109C52.7711 66.8176 52.7873 66.8209 52.8037 66.8207H52.9846C53.0178 66.8197 53.0497 66.8073 53.0749 66.7855C53.1002 66.7637 53.1175 66.7338 53.1238 66.7008L53.7813 62.9201L54.6023 66.7043C54.6102 66.7376 54.6289 66.7672 54.6554 66.7883C54.6819 66.8094 54.7147 66.8209 54.7484 66.8207H55.0059C55.0395 66.8199 55.0718 66.8076 55.0977 66.7858C55.1236 66.7641 55.1415 66.7341 55.1485 66.7008L55.9417 62.183C55.9407 62.1487 55.9271 62.116 55.9035 62.0913L55.9104 62.1054ZM57.7021 61.9538C56.5679 61.9538 56.2026 63.2975 56.0252 64.3061C55.9 65.0326 55.7086 66.1259 56.1365 66.6444C56.2238 66.7423 56.3316 66.8191 56.452 66.8691C56.5724 66.9192 56.7024 66.9412 56.8323 66.9336C58.1161 66.9336 58.3874 65.3818 58.5301 64.5495C58.6623 63.7948 58.8432 62.7614 58.4222 62.25C58.3309 62.1436 58.2164 62.0602 58.0878 62.0063C57.9592 61.9525 57.82 61.9296 57.6812 61.9397L57.7021 61.9538ZM58.123 64.4225V64.5072C58.0048 65.2125 57.7751 66.4962 56.9506 66.4962C56.8677 66.502 56.7846 66.488 56.708 66.4556C56.6313 66.4232 56.5631 66.3731 56.5088 66.3093C56.1887 65.9249 56.3488 65.0185 56.4427 64.4789V64.4049C56.5575 63.7454 56.7906 62.377 57.6255 62.377C57.7055 62.372 57.7855 62.386 57.8592 62.4178C57.9328 62.4496 57.9982 62.4985 58.05 62.5604C58.377 62.9483 58.2065 63.9041 58.1161 64.4155L58.123 64.4225ZM44.7742 64.3308H44.7951L44.8543 64.285C44.8754 64.2717 44.8952 64.2563 44.9134 64.2391C44.9134 64.2391 44.9134 64.2391 44.9134 64.2391C44.9528 64.2051 44.9889 64.1673 45.0213 64.1263L45.1117 63.9958C45.1117 63.9958 45.1117 63.9958 45.1117 63.9781C45.1406 63.9331 45.1662 63.8859 45.1882 63.8371C45.1882 63.8371 45.1882 63.8371 45.1882 63.8371C45.1882 63.8371 45.2335 63.7348 45.2509 63.6854C45.2717 63.629 45.2857 63.5761 45.2996 63.5267C45.3135 63.4773 45.2996 63.5267 45.2996 63.5267C45.2996 63.5267 45.3239 63.4209 45.3344 63.368C45.378 63.2133 45.3878 63.0508 45.3632 62.8918C45.3386 62.7329 45.28 62.5812 45.1917 62.4475C45.061 62.3239 44.905 62.231 44.7348 62.1755C44.5646 62.12 44.3845 62.1033 44.2072 62.1266H43.4836C43.4495 62.1276 43.4167 62.1404 43.3908 62.1628C43.3648 62.1853 43.3472 62.2161 43.3409 62.25L43.3166 62.3735V62.4863L42.5721 66.7537C42.57 66.7699 42.571 66.7863 42.5752 66.802C42.5794 66.8178 42.5866 66.8325 42.5964 66.8454C42.6073 66.8578 42.6208 66.8677 42.6358 66.8743C42.6508 66.881 42.667 66.8844 42.6834 66.8842H42.8643C42.8981 66.884 42.9308 66.8719 42.9568 66.8501C42.9828 66.8282 43.0005 66.7979 43.0069 66.7643L43.1983 65.6675L43.3583 64.7435C43.3622 64.7257 43.3719 64.7098 43.3857 64.6983C43.3996 64.6868 43.4169 64.6803 43.4348 64.68H43.7201C43.9649 64.6427 44.2145 64.7034 44.4159 64.8493C44.4629 64.9151 44.4956 64.9904 44.5118 65.07C44.528 65.1497 44.5273 65.2319 44.5098 65.3113C44.5098 65.3818 44.489 65.477 44.4751 65.5828C44.3938 66.0031 44.3727 66.4331 44.4124 66.8595V66.8842H44.7603C44.7885 66.8872 44.817 66.881 44.8414 66.8664C44.8658 66.8517 44.885 66.8296 44.896 66.8031V66.7784H44.8786C44.7395 66.6867 44.8403 66.073 44.8786 65.7909C44.8786 65.7274 44.8786 65.671 44.903 65.6357C44.983 65.1314 45.0213 64.6623 44.5968 64.4825C44.6631 64.441 44.7209 64.3872 44.7673 64.3238L44.7742 64.3308ZM44.3429 64.1298H44.3081C44.2625 64.1429 44.216 64.1524 44.1689 64.158H43.9915H43.5218C43.515 64.1582 43.5083 64.1566 43.5023 64.1536C43.4962 64.1505 43.491 64.146 43.487 64.1404C43.4836 64.1352 43.4818 64.129 43.4818 64.1227C43.4818 64.1165 43.4836 64.1103 43.487 64.1051L43.6158 63.3645L43.7619 62.5322C43.7658 62.5144 43.7754 62.4985 43.7893 62.487C43.8032 62.4755 43.8205 62.4691 43.8384 62.4687H44.2733C44.3802 62.4527 44.4893 62.4602 44.5931 62.4906C44.6969 62.521 44.7931 62.5737 44.8751 62.645C44.9325 62.7422 44.9688 62.8507 44.9814 62.9632C44.994 63.0758 44.9827 63.1897 44.9482 63.2975C44.9332 63.4795 44.8677 63.6536 44.7594 63.7996C44.6511 63.9456 44.5043 64.0576 44.3359 64.1227L44.3429 64.1298ZM61.7377 62.0984C61.7271 62.0854 61.7138 62.0748 61.6988 62.0675C61.6838 62.0602 61.6674 62.0563 61.6507 62.0561H61.4698C61.4361 62.0583 61.4039 62.0715 61.3782 62.0937C61.3525 62.116 61.3346 62.1461 61.3272 62.1795L60.7601 65.4488C60.6662 65.9954 60.4818 66.5068 59.7999 66.5068C59.7106 66.5182 59.6199 66.5092 59.5344 66.4805C59.449 66.4518 59.3709 66.4042 59.3059 66.3411C59.1841 66.1965 59.1667 65.9461 59.2398 65.5088L59.8173 62.2007C59.8194 62.1845 59.8183 62.1681 59.8142 62.1523C59.81 62.1366 59.8028 62.1219 59.7929 62.109C59.7823 62.0959 59.7691 62.0854 59.7541 62.0781C59.739 62.0708 59.7226 62.0669 59.706 62.0666H59.5251C59.4916 62.0684 59.4596 62.0816 59.4344 62.104C59.4092 62.1263 59.3921 62.1567 59.3859 62.1901L58.798 65.5476C58.7448 65.7305 58.7312 65.9229 58.7582 66.1116C58.7853 66.3003 58.8522 66.4808 58.9545 66.6408C59.0567 66.7468 59.1809 66.8284 59.3182 66.8797C59.4554 66.9309 59.6021 66.9505 59.7477 66.9371C60.5722 66.9371 61.021 66.4575 61.2089 65.3712L61.762 62.1971C61.7661 62.178 61.7651 62.158 61.7589 62.1394C61.7528 62.1208 61.7419 62.1042 61.7272 62.0913L61.7377 62.0984ZM63.3519 61.9467C62.6561 61.9467 62.1343 62.4652 61.9951 63.2693C61.8664 64.0028 62.1795 64.3273 62.764 64.5847L62.9031 64.6518C63.3032 64.8316 63.6198 64.9727 63.5154 65.5793C63.4915 65.8282 63.3778 66.0594 63.1961 66.2286C63.0144 66.3978 62.7776 66.4931 62.5309 66.4962C62.4449 66.5023 62.3586 66.4887 62.2785 66.4563C62.1984 66.424 62.1265 66.3737 62.0682 66.3093C61.9935 66.1914 61.9443 66.0587 61.924 65.9201C61.9036 65.7815 61.9124 65.6401 61.9499 65.5052C61.9404 65.481 61.9242 65.4601 61.9032 65.445C61.8822 65.43 61.8573 65.4215 61.8316 65.4206H61.5359V65.4488C61.4826 65.6435 61.4711 65.8475 61.5023 66.0471C61.5335 66.2467 61.6067 66.4371 61.7168 66.6056C61.8115 66.7141 61.9293 66.7994 62.0613 66.855C62.1933 66.9106 62.336 66.9351 62.4787 66.9265C62.8419 66.9221 63.191 66.7835 63.4606 66.5368C63.7303 66.2901 63.9019 65.9521 63.9433 65.5863C64.0929 64.7152 63.6476 64.4895 63.0771 64.2003L62.8579 64.091L62.7744 64.0522C62.4265 63.8688 62.35 63.6995 62.4265 63.2622C62.5204 62.7191 62.8475 62.3841 63.2789 62.3841C63.3628 62.3783 63.4469 62.3922 63.5247 62.4246C63.6025 62.457 63.6719 62.5071 63.7276 62.571C63.7871 62.6612 63.8267 62.7633 63.8435 62.8705C63.8603 62.9777 63.854 63.0872 63.8251 63.1917C63.8372 63.2137 63.8548 63.2322 63.8762 63.2452C63.8976 63.2582 63.9219 63.2653 63.9468 63.2657H64.2356V63.2375C64.2799 63.0724 64.2872 62.8993 64.2571 62.7309C64.2271 62.5625 64.1603 62.403 64.0616 62.2641C63.9745 62.1573 63.8642 62.0723 63.7392 62.016C63.6142 61.9597 63.4781 61.9336 63.3415 61.9397L63.3519 61.9467ZM68.3442 62.0984C68.3336 62.0854 68.3204 62.0748 68.3053 62.0675C68.2903 62.0602 68.2739 62.0563 68.2573 62.0561H68.0798C68.0455 62.0575 68.0126 62.0704 67.9862 62.0927C67.9598 62.115 67.9413 62.1455 67.9337 62.1795L67.3666 65.4488C67.2727 65.9954 67.0883 66.5068 66.4065 66.5068C66.3171 66.5182 66.2264 66.5092 66.141 66.4805C66.0555 66.4518 65.9774 66.4042 65.9124 66.3411C65.7907 66.1965 65.7698 65.9461 65.8498 65.5088L66.4238 62.2007C66.426 62.1845 66.4249 62.1681 66.4207 62.1523C66.4165 62.1366 66.4093 62.1219 66.3995 62.109C66.3889 62.0959 66.3756 62.0854 66.3606 62.0781C66.3456 62.0708 66.3292 62.0669 66.3125 62.0666H66.1316C66.0979 62.0689 66.0658 62.0821 66.04 62.1043C66.0143 62.1266 65.9964 62.1567 65.989 62.1901L65.4045 65.5476C65.3513 65.7305 65.3378 65.9229 65.3648 66.1116C65.3918 66.3003 65.4588 66.4808 65.5611 66.6408C65.6633 66.7468 65.7875 66.8284 65.9247 66.8797C66.0619 66.9309 66.2086 66.9505 66.3543 66.9371C67.1788 66.9371 67.6276 66.4575 67.8154 65.3712L68.3686 62.1971C68.3714 62.178 68.3697 62.1584 68.3637 62.14C68.3576 62.1216 68.3474 62.105 68.3338 62.0913L68.3442 62.0984ZM69.7358 64.1933L69.5201 64.084L69.4401 64.0452C69.0922 63.8618 69.0122 63.6925 69.0922 63.2552C69.1896 62.712 69.5132 62.377 69.948 62.377C70.0319 62.3718 70.1159 62.3859 70.1936 62.4183C70.2713 62.4507 70.3408 62.5004 70.3968 62.5639C70.4549 62.6548 70.4933 62.7571 70.5095 62.8641C70.5257 62.9711 70.5193 63.0803 70.4908 63.1846C70.5034 63.2062 70.5212 63.2243 70.5424 63.2372C70.5637 63.2502 70.5878 63.2575 70.6125 63.2587H70.9013V63.2305C70.9451 63.0655 70.9525 62.8928 70.9231 62.7245C70.8936 62.5563 70.828 62.3967 70.7308 62.2571C70.6415 62.1529 70.5298 62.0708 70.4044 62.017C70.279 61.9632 70.1431 61.9392 70.0072 61.9467C69.3114 61.9467 68.7895 62.4652 68.6504 63.2693C68.5217 64.0028 68.8382 64.3273 69.4227 64.5847L69.5584 64.6518C69.9585 64.8316 70.2751 64.9727 70.1707 65.5793C70.1468 65.8276 70.0336 66.0583 69.8526 66.2274C69.6717 66.3965 69.4357 66.4922 69.1896 66.4962C69.1031 66.5021 69.0164 66.4884 68.9358 66.456C68.8551 66.4237 68.7826 66.3736 68.7234 66.3093C68.6496 66.191 68.6009 66.0584 68.5805 65.9199C68.5602 65.7815 68.5685 65.6402 68.6052 65.5052C68.5965 65.4804 68.5805 65.459 68.5593 65.4438C68.5381 65.4287 68.5128 65.4205 68.4869 65.4206H68.1912V65.4488C68.1383 65.6438 68.1275 65.8479 68.1593 66.0475C68.1911 66.2471 68.2648 66.4374 68.3755 66.6056C68.4699 66.7145 68.5876 66.8001 68.7197 66.8558C68.8518 66.9114 68.9947 66.9356 69.1374 66.9265C69.5035 66.9244 69.856 66.786 70.128 66.5376C70.4 66.2892 70.5724 65.9482 70.6125 65.5793C70.7621 64.7011 70.3133 64.4754 69.7428 64.1756L69.7358 64.1933Z" fill="#003B5C"/>
<path d="M82.8863 63.3892C82.824 63.3243 82.7484 63.2743 82.6648 63.2426C82.5811 63.2109 82.4917 63.1983 82.4027 63.2058C82.2508 63.2047 82.1005 63.2373 81.9623 63.3013C81.8241 63.3653 81.7013 63.459 81.6025 63.5761C81.5646 63.4509 81.4828 63.3442 81.3726 63.2759C81.2624 63.2077 81.1313 63.1828 81.0042 63.2058C80.8714 63.2086 80.7408 63.2399 80.6208 63.2977C80.5009 63.3554 80.3944 63.4383 80.3084 63.5408C80.3084 63.5091 80.3084 63.4773 80.3084 63.4562V63.3786C80.3105 63.3682 80.3102 63.3575 80.3077 63.3472C80.3051 63.337 80.3003 63.3274 80.2937 63.3193C80.287 63.3112 80.2786 63.3047 80.2691 63.3003C80.2596 63.2959 80.2492 63.2937 80.2388 63.2939H80.0196C79.9961 63.2954 79.9737 63.3044 79.9556 63.3196C79.9375 63.3348 79.9246 63.3555 79.9187 63.3786L79.3377 66.7219C79.3356 66.7326 79.3359 66.7436 79.3386 66.7542C79.3413 66.7647 79.3464 66.7745 79.3535 66.7827C79.3606 66.7909 79.3694 66.7973 79.3794 66.8014C79.3893 66.8056 79.4001 66.8074 79.4108 66.8066H79.6265C79.65 66.8051 79.6724 66.7961 79.6905 66.7809C79.7086 66.7657 79.7215 66.745 79.7274 66.7219L80.0996 64.5706L80.1727 64.1474C80.2194 63.997 80.3086 63.8638 80.4291 63.7641C80.5497 63.6645 80.6964 63.6028 80.8511 63.5867C80.9007 63.5825 80.9505 63.5892 80.9973 63.6062C81.0441 63.6232 81.0868 63.6502 81.1225 63.6854C81.2268 63.8088 81.1955 64.0381 81.1572 64.2779L80.7328 66.7219C80.73 66.7324 80.7296 66.7434 80.7319 66.7539C80.7341 66.7645 80.7389 66.7744 80.7457 66.7827C80.7526 66.7911 80.7613 66.7976 80.7712 66.8017C80.781 66.8059 80.7917 66.8075 80.8024 66.8066H81.0181C81.0417 66.8056 81.0644 66.7969 81.0826 66.7816C81.1009 66.7663 81.1136 66.7453 81.119 66.7219L81.5469 64.2532C81.5648 64.0686 81.6492 63.8971 81.784 63.7715C81.9188 63.646 82.0944 63.5751 82.2775 63.5725C82.3214 63.5693 82.3655 63.5762 82.4065 63.5927C82.4475 63.6092 82.4842 63.6348 82.514 63.6678C82.5545 63.7346 82.5809 63.8092 82.5917 63.8869C82.6025 63.9645 82.5973 64.0436 82.5767 64.1192L82.1244 66.7149C82.1223 66.7252 82.1225 66.736 82.1251 66.7462C82.1276 66.7565 82.1324 66.766 82.1391 66.7742C82.1458 66.7823 82.1542 66.7888 82.1637 66.7932C82.1732 66.7976 82.1835 66.7997 82.194 66.7995H82.4097C82.4335 66.7992 82.4565 66.7906 82.4748 66.7752C82.4932 66.7598 82.5058 66.7385 82.5106 66.7149L82.6497 65.9214L82.9524 64.158C82.9943 64.0321 83.01 63.8989 82.9986 63.7666C82.9873 63.6343 82.949 63.5058 82.8863 63.3892V63.3892ZM85.4294 63.3892C85.4316 63.3785 85.4313 63.3674 85.4286 63.3569C85.4258 63.3464 85.4207 63.3366 85.4136 63.3284C85.4066 63.3202 85.3977 63.3138 85.3878 63.3096C85.3778 63.3055 85.3671 63.3037 85.3564 63.3045H85.1407C85.1174 63.3056 85.0952 63.3145 85.0776 63.3299C85.06 63.3452 85.0479 63.3661 85.0432 63.3892L85.0119 63.569C84.9571 63.4535 84.8687 63.3578 84.7586 63.2948C84.6485 63.2318 84.522 63.2044 84.3962 63.2163C83.5055 63.2163 83.2829 64.486 83.1785 65.0926C83.0741 65.6992 83.0046 66.3587 83.2794 66.6902C83.3425 66.7627 83.421 66.8197 83.509 66.857C83.5969 66.8943 83.6921 66.9108 83.7873 66.9053C83.9173 66.9078 84.0463 66.8828 84.1661 66.8318C84.2859 66.7807 84.3939 66.7049 84.4831 66.6091C84.4815 66.6337 84.4815 66.6585 84.4831 66.6831C84.3927 67.1416 84.3022 67.6213 83.7178 67.6213C83.6528 67.6204 83.5886 67.6066 83.5289 67.5806C83.4692 67.5545 83.4152 67.5168 83.3699 67.4696C83.3323 67.4258 83.3082 67.3719 83.3003 67.3144C83.2985 67.2898 83.2985 67.265 83.3003 67.2404C83.3025 67.2297 83.3022 67.2187 83.2994 67.2081C83.2967 67.1976 83.2916 67.1878 83.2845 67.1796C83.2774 67.1714 83.2686 67.165 83.2586 67.1609C83.2487 67.1567 83.2379 67.155 83.2272 67.1557H83.0046C82.9807 67.156 82.9578 67.1646 82.9394 67.18C82.921 67.1954 82.9084 67.2167 82.9037 67.2404C82.9037 67.2651 82.9037 67.2897 82.9037 67.3144C82.8946 67.4765 82.9455 67.6362 83.0463 67.7623C83.1275 67.8435 83.2245 67.9064 83.3312 67.9471C83.4379 67.9878 83.5518 68.0054 83.6656 67.9986C84.3405 67.9986 84.7093 67.5895 84.8763 66.7184L85.4538 63.4068L85.4294 63.3892ZM84.758 65.0185L84.7371 65.142C84.664 65.5546 84.497 66.5209 83.9161 66.5244C83.8603 66.5289 83.8044 66.5197 83.7529 66.4976C83.7014 66.4755 83.6559 66.4412 83.6203 66.3975C83.3873 66.1153 83.5055 65.4311 83.5647 65.1032C83.7386 64.1051 84.0169 63.5972 84.3927 63.5972C84.4573 63.5904 84.5226 63.5992 84.5831 63.6232C84.6436 63.6471 84.6976 63.6854 84.7406 63.7348C84.9424 63.9887 84.838 64.5777 84.758 65.0079V65.0185ZM87.6455 62.0631H87.4437C87.4186 62.0643 87.3941 62.0721 87.3728 62.0857C87.3514 62.0992 87.3339 62.1182 87.322 62.1407L85.0919 67.2792C85.0711 67.3215 85.0363 67.3991 85.1233 67.3991H85.3216C85.3464 67.3984 85.3706 67.3907 85.3914 67.3771C85.4123 67.3634 85.429 67.3442 85.4398 67.3215L87.6768 62.183C87.6977 62.1301 87.736 62.0596 87.6455 62.0596V62.0631ZM93.0414 66.3904H91.6498C91.6392 66.3901 91.6288 66.3875 91.6193 66.3827C91.6098 66.3779 91.6015 66.371 91.5949 66.3627C91.5883 66.3543 91.5835 66.3445 91.581 66.3341C91.5785 66.3237 91.5782 66.3128 91.5802 66.3023L92.2969 62.183C92.2969 62.1336 92.2795 62.0631 92.2308 62.0631H91.9768C91.9528 62.0627 91.9295 62.0711 91.911 62.0866C91.8925 62.1021 91.8801 62.1238 91.8759 62.1477L91.0792 66.6796C91.0792 66.729 91.0966 66.7995 91.1419 66.7995H92.9649C92.9889 66.7999 93.0122 66.7916 93.0307 66.7761C93.0492 66.7605 93.0616 66.7388 93.0657 66.7149L93.111 66.4645C93.1131 66.4541 93.1128 66.4434 93.1103 66.4331C93.1077 66.4229 93.1029 66.4133 93.0962 66.4052C93.0896 66.3971 93.0812 66.3906 93.0717 66.3862C93.0622 66.3818 93.0518 66.3796 93.0414 66.3798V66.3904ZM90.4287 63.2163C90.2768 63.2153 90.1264 63.2479 89.9882 63.3119C89.85 63.3758 89.7273 63.4696 89.6285 63.5867C89.5906 63.4615 89.5088 63.3547 89.3986 63.2865C89.2883 63.2183 89.1573 63.1933 89.0301 63.2163C88.8975 63.22 88.7672 63.2518 88.6474 63.3094C88.5276 63.3671 88.4209 63.4495 88.3343 63.5514C88.3343 63.5196 88.3343 63.4879 88.3343 63.4667V63.3892C88.3365 63.3785 88.3362 63.3674 88.3335 63.3569C88.3308 63.3464 88.3256 63.3366 88.3186 63.3284C88.3115 63.3202 88.3026 63.3138 88.2927 63.3096C88.2828 63.3055 88.272 63.3037 88.2613 63.3045H88.0456C88.0219 63.3054 87.9993 63.3142 87.981 63.3295C87.9628 63.3448 87.95 63.3658 87.9447 63.3892L87.3637 66.7325C87.3615 66.7432 87.3618 66.7542 87.3646 66.7648C87.3673 66.7753 87.3724 66.785 87.3795 66.7932C87.3866 66.8014 87.3954 66.8079 87.4054 66.812C87.4153 66.8162 87.4261 66.8179 87.4368 66.8172H87.6525C87.6759 66.8157 87.6984 66.8067 87.7165 66.7915C87.7346 66.7763 87.7475 66.7556 87.7534 66.7325L88.1256 64.5812L88.1987 64.158C88.2454 64.0076 88.3345 63.8743 88.4551 63.7747C88.5756 63.6751 88.7223 63.6134 88.8771 63.5972C88.9266 63.5931 88.9765 63.5997 89.0233 63.6168C89.0701 63.6338 89.1128 63.6608 89.1484 63.696C89.2528 63.8194 89.2215 64.0487 89.1832 64.2885L88.7553 66.7325C88.7531 66.7432 88.7534 66.7542 88.7562 66.7648C88.7589 66.7753 88.764 66.785 88.7711 66.7932C88.7781 66.8014 88.787 66.8079 88.7969 66.812C88.8069 66.8162 88.8176 66.8179 88.8284 66.8172H89.0441C89.0675 66.8157 89.0899 66.8067 89.1081 66.7915C89.1262 66.7763 89.1391 66.7556 89.1449 66.7325L89.5729 64.2638C89.5908 64.0791 89.6752 63.9076 89.81 63.7821C89.9447 63.6565 90.1204 63.5857 90.3034 63.5831C90.3469 63.5799 90.3905 63.5868 90.4309 63.6033C90.4713 63.6198 90.5074 63.6455 90.5365 63.6783C90.5778 63.7449 90.6047 63.8195 90.6155 63.8973C90.6262 63.9751 90.6207 64.0543 90.5991 64.1298L90.1504 66.7255C90.1475 66.7359 90.1472 66.7469 90.1494 66.7575C90.1517 66.7681 90.1564 66.7779 90.1633 66.7863C90.1701 66.7946 90.1789 66.8011 90.1887 66.8053C90.1986 66.8094 90.2093 66.8111 90.2199 66.8101H90.4356C90.4593 66.8092 90.482 66.8004 90.5002 66.7851C90.5184 66.7698 90.5312 66.7488 90.5365 66.7255L90.6722 65.9319L90.9784 64.1686C91.0195 64.0376 91.0322 63.8991 91.0154 63.7627C90.9985 63.6263 90.9527 63.4952 90.8809 63.3786C90.8213 63.3198 90.7504 63.2742 90.6726 63.2444C90.5948 63.2147 90.5117 63.2015 90.4287 63.2058V63.2163ZM77.807 62.1054C77.2712 62.1054 76.6763 62.384 76.311 64.4683C76.1301 65.5264 76.0745 66.2917 76.3876 66.669C76.4573 66.7487 76.5439 66.8114 76.6409 66.8523C76.7379 66.8932 76.8428 66.9114 76.9477 66.9053C77.9496 66.9053 78.2419 65.7062 78.4367 64.5847C78.4367 64.5424 78.4541 64.5001 78.461 64.4507C78.5654 63.8829 78.7568 62.8213 78.3671 62.3347C78.2977 62.2543 78.2113 62.191 78.1143 62.1494C78.0172 62.1079 77.9122 62.0892 77.807 62.0948V62.1054ZM78.0192 64.5424C77.6713 66.5068 77.2225 66.5068 77.0034 66.5068C76.9502 66.5109 76.8968 66.5025 76.8473 66.4823C76.7979 66.4621 76.7537 66.4307 76.7181 66.3904C76.5372 66.1682 76.5372 65.6286 76.7181 64.5847C76.986 63.0471 77.2434 62.5039 77.6991 62.5039C77.7638 62.4971 77.829 62.506 77.8896 62.5299C77.9501 62.5538 78.0041 62.5921 78.047 62.6415C78.2767 62.9166 78.1758 63.6325 78.0192 64.5283V64.5424ZM76.158 62.1442C76.1483 62.1322 76.1361 62.1225 76.1222 62.1158C76.1084 62.1091 76.0933 62.1055 76.078 62.1054H75.9353C75.8344 62.1054 75.7683 62.3735 75.7196 62.4581C75.6667 62.5694 75.5893 62.6671 75.4934 62.7435C75.3975 62.8199 75.2857 62.873 75.1665 62.8989C75.0786 62.921 74.9889 62.9351 74.8986 62.9413H74.836C74.8076 62.9465 74.7814 62.96 74.7604 62.98C74.7394 63 74.7246 63.0258 74.7177 63.0541L74.6968 63.1705C74.6942 63.1866 74.6952 63.203 74.6996 63.2186C74.7041 63.2343 74.7119 63.2487 74.7226 63.2609C74.7333 63.273 74.7465 63.2826 74.7613 63.289C74.7761 63.2953 74.7921 63.2982 74.8081 63.2975C75.0678 63.2929 75.3269 63.2717 75.5839 63.234L75.076 66.1577L74.9856 66.6726C74.9823 66.6893 74.9827 66.7065 74.987 66.723C74.9912 66.7395 74.999 66.7548 75.0099 66.7678C75.0208 66.7802 75.0342 66.79 75.0492 66.7967C75.0643 66.8034 75.0805 66.8068 75.0969 66.8066H75.2639C75.2977 66.8064 75.3303 66.7943 75.3563 66.7725C75.3823 66.7506 75.4001 66.7203 75.4065 66.6867L76.1823 62.2253C76.1853 62.2092 76.1847 62.1925 76.1805 62.1767C76.1763 62.1608 76.1686 62.1461 76.158 62.1336V62.1442Z" fill="#003B5C"/>
<path d="M51.9931 42.941C51.9597 42.8934 51.9153 42.855 51.8637 42.8291C51.8121 42.8033 51.7549 42.7908 51.6974 42.7929H51.1964C51.0809 42.7974 50.9691 42.8358 50.8747 42.9034C50.7802 42.971 50.7071 43.0649 50.6641 43.1737L47.3696 52.2199L47.1226 43.2372C47.119 43.1193 47.0707 43.0073 46.9878 42.9245C46.9048 42.8418 46.7936 42.7946 46.6772 42.7929H46.1763C46.1184 42.7928 46.0611 42.8047 46.0079 42.8277C45.9547 42.8507 45.9066 42.8845 45.8666 42.9269C45.8268 42.9695 45.796 43.02 45.7762 43.0752C45.7565 43.1304 45.7482 43.1892 45.7518 43.2478L46.2528 54.0291C46.2599 54.147 46.3109 54.2578 46.3955 54.339C46.4801 54.4202 46.592 54.4657 46.7086 54.4664H47.2756C47.3913 54.4625 47.5034 54.4252 47.5989 54.359C47.6944 54.2928 47.7693 54.2004 47.8149 54.0926L52.0175 43.269C52.04 43.2164 52.0496 43.1591 52.0453 43.1019C52.0411 43.0448 52.0231 42.9895 51.9931 42.941V42.941ZM45.731 39.0086C45.6932 38.9638 45.6463 38.928 45.5934 38.9036C45.5405 38.8792 45.4829 38.8669 45.4248 38.8676H44.9969C44.8805 38.8694 44.7682 38.9118 44.6789 38.9875C44.5896 39.0633 44.5287 39.1679 44.5064 39.2837L44.2246 40.8743C44.2124 40.9314 44.2132 40.9906 44.2269 41.0473C44.2407 41.104 44.267 41.1568 44.3039 41.2017C44.3408 41.2466 44.3873 41.2824 44.4398 41.3063C44.4924 41.3302 44.5497 41.3417 44.6073 41.3398H45.0387C45.1549 41.3373 45.2669 41.2947 45.356 41.2191C45.4452 41.1434 45.5063 41.0392 45.5292 40.9237L45.811 39.3366C45.8224 39.2794 45.8212 39.2203 45.8073 39.1635C45.7935 39.1068 45.7674 39.0539 45.731 39.0086V39.0086ZM44.7325 42.7929H44.3011C44.1849 42.7954 44.0729 42.8379 43.9837 42.9136C43.8946 42.9892 43.8335 43.0934 43.8106 43.209L41.9041 54.0009C41.8919 54.058 41.8927 54.1171 41.9065 54.1739C41.9202 54.2306 41.9465 54.2834 41.9834 54.3283C42.0203 54.3732 42.0668 54.4089 42.1194 54.4329C42.1719 54.4568 42.2292 54.4683 42.2868 54.4664H42.7217C42.8379 54.4639 42.9499 54.4213 43.039 54.3457C43.1282 54.27 43.1893 54.1658 43.2122 54.0503L45.1221 43.2584C45.1326 43.2014 45.1305 43.1428 45.1161 43.0867C45.1016 43.0307 45.0752 42.9785 45.0387 42.9339C45.0009 42.8891 44.954 42.8532 44.9011 42.8289C44.8482 42.8045 44.7906 42.7922 44.7325 42.7929ZM41.5666 43.1773C41.3656 42.9569 41.1185 42.7849 40.8434 42.6739C40.5683 42.5628 40.2722 42.5155 39.9768 42.5354C38.8531 42.5354 38.0216 43.3254 37.5415 43.9461L37.6633 43.2408C37.6735 43.1835 37.6717 43.1246 37.6579 43.0681C37.6441 43.0115 37.6186 42.9586 37.5832 42.9128C37.5455 42.868 37.4985 42.8321 37.4456 42.8077C37.3927 42.7833 37.3352 42.771 37.2771 42.7717H36.9501C36.8338 42.7742 36.7219 42.8168 36.6327 42.8924C36.5435 42.9681 36.4824 43.0723 36.4595 43.1879L34.5531 53.9797C34.5411 54.037 34.5421 54.0962 34.556 54.153C34.5698 54.2098 34.5962 54.2627 34.6331 54.3077C34.6706 54.3516 34.7171 54.3867 34.7694 54.4104C34.8217 54.4342 34.8785 54.4461 34.9357 54.4453H35.3671C35.4834 54.4428 35.5953 54.4002 35.6845 54.3245C35.7737 54.2489 35.8348 54.1447 35.8577 54.0291L37.1553 46.6934C37.451 45.0218 38.3904 43.9214 39.5488 43.872H39.5906C39.7363 43.8605 39.8826 43.8842 40.0175 43.9412C40.1524 43.9982 40.272 44.0869 40.3664 44.2C40.6726 44.5844 40.7143 45.3251 40.516 46.2914L39.1522 53.9833C39.1418 54.0408 39.1438 54.0999 39.1583 54.1566C39.1727 54.2132 39.1991 54.266 39.2357 54.3112C39.2729 54.3555 39.3194 54.3908 39.3718 54.4146C39.4241 54.4384 39.4811 54.4501 39.5384 54.4488H39.9698C40.0861 54.4463 40.198 54.4037 40.2872 54.328C40.3763 54.2524 40.4374 54.1482 40.4603 54.0326L41.9285 45.7306C42.1337 44.5844 42.0259 43.7204 41.5666 43.1773V43.1773ZM33.3911 48.1676C33.889 45.3063 34.9312 42.5705 36.4595 40.1125C36.4793 40.0764 36.4897 40.0357 36.4897 39.9944C36.4897 39.953 36.4793 39.9124 36.4595 39.8762C36.4236 39.8177 36.3714 39.7711 36.3096 39.7422C36.2477 39.7134 36.1789 39.7036 36.1116 39.714C36.0127 39.7085 35.9139 39.7278 35.8241 39.7702C35.7343 39.8127 35.6562 39.8769 35.5967 39.9573C33.9209 42.4054 32.7755 45.1856 32.2361 48.1147C31.7257 50.834 31.8882 53.6392 32.7092 56.2792C32.7585 56.3627 32.83 56.4305 32.9155 56.4748C33.001 56.5191 33.0971 56.5381 33.1928 56.5296C33.2631 56.5366 33.3341 56.5262 33.3996 56.4991C33.4651 56.4721 33.523 56.4293 33.5685 56.3744C33.588 56.3521 33.6019 56.3255 33.6092 56.2966C33.6164 56.2678 33.6168 56.2376 33.6103 56.2086C32.9458 53.5785 32.871 50.8309 33.3911 48.1676ZM95.8176 39.9891C95.8176 39.9468 95.7098 39.7211 95.3375 39.7211C95.2694 39.7149 95.2009 39.7251 95.1374 39.7508C95.0739 39.7766 95.0174 39.8171 94.9722 39.8692C94.9492 39.8979 94.9329 39.9316 94.9245 39.9676C94.9161 40.0036 94.9157 40.0411 94.9235 40.0773C95.5855 42.7064 95.6616 45.452 95.1462 48.1147C94.6445 50.9788 93.5988 53.7169 92.0673 56.1769C92.0512 56.2072 92.0427 56.2412 92.0427 56.2756C92.0427 56.3101 92.0512 56.344 92.0673 56.3744C92.1051 56.4304 92.158 56.4741 92.2197 56.5004C92.2814 56.5267 92.3493 56.5344 92.4152 56.5225C92.5109 56.5323 92.6075 56.5189 92.697 56.4833C92.7866 56.4478 92.8665 56.3911 92.9301 56.318C94.6072 53.8724 95.7549 51.0948 96.2977 48.1676C96.8076 45.4432 96.6427 42.633 95.8176 39.9891V39.9891ZM93.1353 43.2549C92.9336 43.021 92.6824 42.8361 92.4006 42.714C92.1187 42.5919 91.8134 42.5357 91.5072 42.5495H91.4724C91.0278 42.5606 90.5932 42.6858 90.2093 42.9134C89.8254 43.1409 89.5047 43.4635 89.2772 43.8509L90.0738 39.3507C90.0843 39.2932 90.0823 39.2341 90.0678 39.1774C90.0534 39.1208 90.027 39.068 89.9904 39.0228C89.9533 38.978 89.907 38.9422 89.8546 38.9178C89.8023 38.8934 89.7453 38.8811 89.6877 38.8817H89.2563C89.14 38.8842 89.0281 38.9268 88.9389 39.0024C88.8498 39.0781 88.7887 39.1823 88.7658 39.2978L86.1635 54.015C86.153 54.0725 86.1551 54.1317 86.1695 54.1883C86.1839 54.245 86.2104 54.2978 86.247 54.343C86.284 54.3875 86.3305 54.4229 86.3829 54.4467C86.4353 54.4705 86.4923 54.4821 86.5497 54.4805H86.8767C86.9929 54.478 87.1049 54.4354 87.194 54.3598C87.2832 54.2841 87.3443 54.1799 87.3672 54.0644L87.5168 53.2179C87.6099 53.6529 87.8485 54.0419 88.1921 54.3189C88.5358 54.596 88.9634 54.744 89.4024 54.738C91.448 54.738 92.7944 52.7489 93.5145 48.6578C93.9981 45.9211 93.8624 44.1612 93.1353 43.2549V43.2549ZM92.1438 48.5944C91.3993 52.8018 90.3487 53.3696 89.4198 53.3696C89.2555 53.3858 89.0897 53.3624 88.9361 53.301C88.7825 53.2397 88.6454 53.1424 88.5361 53.0169C88.0456 52.4209 88.0108 50.9926 88.4248 48.6402C89.1658 44.454 90.2165 43.8862 91.1454 43.8862C91.3086 43.871 91.4729 43.8951 91.6253 43.9564C91.7776 44.0176 91.9135 44.1144 92.0221 44.2388C92.5161 44.8384 92.5543 46.2632 92.1438 48.5944V48.5944ZM78.9238 43.1103C78.7501 42.9137 78.5345 42.7597 78.2934 42.6601C78.0523 42.5605 77.792 42.5179 77.5322 42.5354C76.2798 42.5354 75.4448 43.4453 74.9543 44.1789C74.9297 43.7502 74.763 43.3426 74.4811 43.0221C74.3235 42.8596 74.134 42.7323 73.9249 42.6485C73.7158 42.5646 73.4917 42.5261 73.267 42.5354C72.1085 42.5354 71.2874 43.3254 70.8317 43.9214L70.95 43.2584C70.9609 43.2012 70.959 43.1422 70.9445 43.0858C70.9301 43.0294 70.9034 42.9769 70.8664 42.9323C70.8294 42.8877 70.783 42.852 70.7306 42.8279C70.6783 42.8038 70.6213 42.7918 70.5638 42.7929H70.2368C70.1205 42.7954 70.0086 42.8379 69.9194 42.9136C69.8303 42.9892 69.7692 43.0934 69.7463 43.209L67.8398 54.0009C67.8284 54.0579 67.8293 54.1168 67.8425 54.1734C67.8557 54.23 67.8809 54.2831 67.9163 54.3289C67.9545 54.3729 68.0017 54.4079 68.0545 54.4317C68.1074 54.4554 68.1647 54.4673 68.2225 54.4664H68.6539C68.7701 54.4639 68.8821 54.4213 68.9712 54.3457C69.0604 54.27 69.1215 54.1658 69.1444 54.0503L70.4455 46.6934C70.7308 45.0676 71.6736 43.872 72.6825 43.872C72.822 43.8606 72.9621 43.8828 73.0915 43.9367C73.2209 43.9906 73.3358 44.0748 73.427 44.1824C73.6183 44.4222 73.7993 44.9371 73.5662 46.0128L72.1537 53.9833C72.1435 54.0405 72.1453 54.0994 72.1591 54.1559C72.1729 54.2125 72.1983 54.2654 72.2337 54.3112C72.2719 54.3552 72.3191 54.3903 72.3719 54.414C72.4248 54.4378 72.4821 54.4496 72.5399 54.4488H72.9713C73.0875 54.4463 73.1995 54.4037 73.2886 54.328C73.3778 54.2524 73.4389 54.1482 73.4618 54.0326L74.7629 46.6758C75.0482 45.05 75.991 43.8544 76.9964 43.8544C77.1374 43.8427 77.2792 43.8647 77.4103 43.9186C77.5414 43.9725 77.6582 44.0568 77.7514 44.1648C77.9392 44.4046 78.0993 44.916 77.8836 45.9916L76.4676 54.0009C76.4561 54.0582 76.4574 54.1174 76.4716 54.1741C76.4858 54.2308 76.5125 54.2835 76.5496 54.3283C76.5868 54.3731 76.6334 54.4088 76.6861 54.4327C76.7388 54.4566 76.7961 54.4681 76.8538 54.4664H77.2817C77.3981 54.4646 77.5104 54.4222 77.5997 54.3464C77.689 54.2707 77.7499 54.1661 77.7722 54.0503L79.2508 45.6425C79.4665 44.4857 79.3517 43.6358 78.9029 43.1103H78.9238ZM57.2289 43.2972C57.0153 43.0444 56.7476 42.8443 56.4461 42.7123C56.1447 42.5803 55.8175 42.5198 55.4895 42.5354C53.3534 42.5354 51.8539 44.6303 51.1547 48.5944C50.692 51.2042 50.859 53.0099 51.6452 53.9621C51.8588 54.2149 52.1266 54.415 52.428 54.547C52.7295 54.679 53.0567 54.7395 53.3847 54.7239C55.5208 54.7239 57.0202 52.6078 57.723 48.6437C58.1752 46.0481 58.0082 44.2494 57.222 43.2972H57.2289ZM56.3488 48.5873C55.7956 51.712 54.8354 53.3625 53.5656 53.3625C53.409 53.3692 53.253 53.3389 53.1099 53.274C52.9669 53.2091 52.8406 53.1115 52.7411 52.9887C52.1984 52.3363 52.1253 50.8727 52.5219 48.6367C53.0716 45.5261 54.0283 43.8826 55.3051 43.8826C55.4621 43.8762 55.6186 43.9067 55.7622 43.9715C55.9058 44.0363 56.0327 44.1338 56.1331 44.2565C56.6619 44.916 56.7349 46.3725 56.3418 48.5944L56.3488 48.5873ZM85.2242 53.232C85.0398 53.232 84.998 52.8406 84.998 52.7348C85.0001 52.541 85.0164 52.3477 85.0467 52.1564L86.1844 45.7201C86.3861 44.595 86.2644 43.7521 85.8365 43.2196C85.4607 42.7611 84.8484 42.5142 84.017 42.5142C82.0688 42.5142 80.8581 43.7803 80.4162 46.2773L80.3849 46.443H81.2825C81.3981 46.4391 81.5103 46.4019 81.6058 46.3357C81.7013 46.2694 81.7762 46.177 81.8217 46.0692V46.0375C81.8217 46.0163 82.1383 43.872 83.7874 43.8685C83.9467 43.8525 84.1076 43.8724 84.2585 43.9266C84.4095 43.9809 84.5468 44.0682 84.6606 44.1824C84.9006 44.4645 84.9737 44.9689 84.8798 45.6813C84.6745 47.2013 83.8361 47.3847 83.5717 47.4446L83.4916 47.4658L81.6861 48.0759C80.3536 48.5168 79.4908 49.6418 79.1916 51.3382C78.969 52.6078 79.0942 53.5354 79.5639 54.1032C79.7523 54.3163 79.9863 54.4831 80.248 54.5906C80.5096 54.6982 80.7921 54.7438 81.0738 54.7239V54.7239C81.5678 54.7176 82.0527 54.5878 82.4854 54.346C82.9181 54.1042 83.2852 53.7579 83.5543 53.3379C83.5273 53.4957 83.5316 53.6575 83.5668 53.8137C83.6021 53.9699 83.6676 54.1174 83.7595 54.2478C83.8987 54.3785 84.0638 54.4776 84.2438 54.5384C84.4238 54.5992 84.6145 54.6204 84.8032 54.6004C84.8929 54.6022 84.9822 54.5891 85.0676 54.5616C85.1754 54.5199 85.2713 54.4516 85.3466 54.363C85.4219 54.2743 85.4743 54.1681 85.499 54.0538L85.5582 53.7011C85.5696 53.6433 85.5684 53.5836 85.5546 53.5263C85.5407 53.469 85.5146 53.4155 85.4781 53.3696C85.4101 53.2934 85.315 53.2478 85.2137 53.2426L85.2242 53.232ZM84.1213 49.9839C84.0274 50.5482 83.4534 53.3696 81.526 53.3696C81.3997 53.3757 81.2737 53.3521 81.1578 53.3008C81.042 53.2494 80.9394 53.1715 80.8581 53.0733C80.5693 52.7207 80.4823 52.1 80.6111 51.31C80.6712 50.7495 80.9061 50.223 81.2814 49.807C81.6567 49.391 82.1531 49.1071 82.6984 48.9964L82.7715 48.9753C83.3596 48.8629 83.9193 48.6314 84.4171 48.2946L84.1213 49.9839ZM61.5637 39.0086C61.5264 38.9643 61.48 38.9287 61.4277 38.9043C61.3755 38.88 61.3186 38.8674 61.2611 38.8676H60.8123C60.696 38.8701 60.5841 38.9127 60.4949 38.9883C60.4057 39.064 60.3447 39.1682 60.3217 39.2837L57.7195 54.0009C57.7073 54.058 57.7081 54.1171 57.7218 54.1739C57.7356 54.2306 57.7619 54.2834 57.7988 54.3283C57.8357 54.3732 57.8822 54.4089 57.9347 54.4329C57.9873 54.4568 58.0446 54.4683 58.1022 54.4664H58.5336C58.6502 54.4641 58.7627 54.4216 58.8524 54.346C58.9422 54.2704 59.0039 54.1661 59.0276 54.0503L61.6264 39.3331C61.6387 39.2767 61.6383 39.2181 61.625 39.1619C61.6117 39.1057 61.586 39.0533 61.5498 39.0086H61.5637ZM68.2294 42.9339C68.1921 42.8896 68.1457 42.854 68.0934 42.8296C68.0412 42.8053 67.9843 42.7927 67.9268 42.7929H67.4954C67.3791 42.7954 67.2672 42.8379 67.178 42.9136C67.0888 42.9892 67.0278 43.0934 67.0048 43.209L65.6828 50.5693C65.3906 52.2199 64.4374 53.3449 63.3067 53.3696H63.2719C63.121 53.3793 62.97 53.3524 62.8314 53.2911C62.6929 53.2297 62.5707 53.1357 62.4752 53.0169C62.2908 52.7806 62.0264 52.167 62.3535 50.7351C62.3535 50.7034 62.3535 50.6787 62.3709 50.6681L63.6824 43.2443C63.6928 43.1873 63.6908 43.1287 63.6763 43.0726C63.6619 43.0166 63.6355 42.9644 63.5989 42.9198C63.5621 42.8749 63.5157 42.8389 63.4634 42.8145C63.411 42.7901 63.3539 42.7779 63.2963 42.7788H62.8649C62.7486 42.7813 62.6367 42.8238 62.5475 42.8995C62.4583 42.9751 62.3973 43.0793 62.3743 43.1949L60.9619 51.1971V51.2394C60.694 52.4526 60.8018 53.4472 61.268 54.0397C61.4631 54.2684 61.708 54.448 61.9833 54.5643C62.2586 54.6806 62.5569 54.7304 62.8544 54.7098C63.8981 54.7098 64.7922 53.8774 65.3106 53.2426L65.1784 53.9868C65.1668 54.0441 65.1682 54.1033 65.1824 54.16C65.1966 54.2167 65.2233 54.2694 65.2604 54.3142C65.2976 54.359 65.3442 54.3947 65.3969 54.4186C65.4495 54.4425 65.5069 54.454 65.5645 54.4523H65.8916C66.0078 54.4498 66.1198 54.4072 66.2089 54.3316C66.2981 54.2559 66.3592 54.1517 66.3821 54.0361L68.2921 43.2443C68.3014 43.19 68.2993 43.1343 68.2862 43.0809C68.273 43.0274 68.2489 42.9774 68.2155 42.9339H68.2294Z" fill="#003B5C"/>
<path d="M11.5536 11.8032C6.23078 11.8032 2.42131 14.7092 1.60376 19.3857L0.139114 27.8147C-0.674963 32.4947 2.1256 35.4007 7.44494 35.4007C12.7643 35.4007 16.5877 32.4947 17.4017 27.8147L18.8664 19.3857C19.6805 14.7092 16.8799 11.8032 11.5536 11.8032ZM13.2687 19.4457L11.8215 27.7582C11.6858 28.5553 11.411 30.033 8.38426 30.033C5.35756 30.033 5.60109 28.5517 5.74025 27.7582L7.18402 19.4457C7.32318 18.6521 7.58062 17.1709 10.6212 17.1709C13.6618 17.1709 13.4079 18.6521 13.2687 19.4457V19.4457ZM36.9813 18.638C37.0161 18.4335 37.0474 18.2254 37.0683 18.0173C37.3745 15.2241 36.4351 12.1841 30.8827 12.1841H22.9229C22.7303 12.1921 22.5462 12.2663 22.4008 12.3945C22.2553 12.5227 22.1573 12.6972 22.1227 12.8894L18.3689 34.512C18.3471 34.5971 18.3453 34.6863 18.3636 34.7723C18.3819 34.8583 18.4197 34.9387 18.4741 35.0073C18.5286 35.0758 18.598 35.1305 18.677 35.167C18.756 35.2034 18.8423 35.2207 18.929 35.2173H23.1559C23.3483 35.2098 23.5322 35.1356 23.6772 35.0073C23.8222 34.879 23.9194 34.7041 23.9526 34.512L25.0729 28.0827H28.11C32.9388 28.0827 35.0679 25.7727 35.9968 23.3251C36.2057 22.7668 36.3607 22.1892 36.4595 21.6005L36.9813 18.638ZM31.3802 18.6804L31.2411 19.3857L30.8584 21.597C30.6949 22.5139 30.6705 22.6762 28.9519 22.6762H26.0226L26.3705 20.539L26.8819 17.5871H29.8495C31.5681 17.5871 31.5437 17.7317 31.3802 18.6804ZM53.2977 13.5913C52.1601 12.6778 50.5145 12.1806 48.3784 12.1806H40.6586C40.4659 12.188 40.2814 12.2619 40.1359 12.3902C39.9903 12.5185 39.8924 12.6934 39.8584 12.8859V12.8859L36.1116 34.512C36.0891 34.5972 36.0867 34.6866 36.1047 34.7729C36.1226 34.8593 36.1604 34.9401 36.215 35.0088C36.2696 35.0775 36.3394 35.1322 36.4187 35.1685C36.4981 35.2047 36.5848 35.2214 36.6717 35.2173H44.395C49.3769 35.2173 52.6958 32.5722 53.4995 27.9557L54.9745 19.4633V19.4069C55.2981 17.4707 55.058 15.8801 54.2996 14.6987C54.0278 14.2733 53.6894 13.8956 53.2977 13.5807V13.5913ZM49.3317 19.6255L47.9192 27.7618C47.6792 29.1372 47.4635 29.8002 45.2265 29.8002H42.5059L44.6316 17.5871H47.3487C49.5856 17.5871 49.5717 18.2501 49.3317 19.6255ZM93.9876 11.8032C88.6648 11.8032 84.8519 14.7092 84.0343 19.3857L82.5697 27.8147C81.7556 32.4947 84.5562 35.4007 89.8755 35.4007C95.1949 35.4007 99.0113 32.4947 99.8288 27.8147L101.3 19.3857C102.115 14.7092 99.3139 11.8032 93.9876 11.8032ZM95.6993 19.4457L94.2555 27.7582C94.1164 28.5517 93.8589 30.0295 90.8148 30.0295C87.7707 30.0295 88.0317 28.5517 88.1708 27.7582L89.6146 19.4457C89.7572 18.6521 90.0112 17.1709 93.0518 17.1709C96.0924 17.1709 95.8385 18.6521 95.6993 19.4457V19.4457ZM84.4692 11.1331L79.5291 12.9212C79.3508 12.9648 79.1837 13.046 79.0386 13.1597C78.8935 13.2734 78.7737 13.4168 78.6872 13.5807L72.7138 25.5399L71.4022 17.3931C71.2387 16.3774 71.1691 15.9401 70.5707 16.1587L66.636 17.5694C65.9402 17.8198 65.8881 17.9715 65.9402 18.3982L68.4207 34.72C68.4396 34.8552 68.5074 34.9785 68.6109 35.0658C68.7144 35.1531 68.8463 35.1983 68.9809 35.1926H73.6288C73.7804 35.1863 73.9277 35.1392 74.0554 35.0561C74.1832 34.9731 74.2869 34.8571 74.3559 34.72L85.1406 11.9866C85.3494 11.5352 85.1998 10.9532 84.4692 11.1331ZM64.086 12.1911H59.8555C59.6676 12.1906 59.485 12.2544 59.3373 12.3722C59.1895 12.49 59.0853 12.6548 59.0415 12.8401L55.2842 34.4978C55.2681 34.5816 55.27 34.668 55.2899 34.7509C55.3097 34.8339 55.347 34.9115 55.3992 34.9785C55.4514 35.0455 55.5173 35.1002 55.5923 35.139C55.6673 35.1778 55.7497 35.1997 55.8339 35.2032H60.0817C60.2695 35.1959 60.4495 35.1249 60.5927 35.0014C60.7359 34.878 60.8341 34.7093 60.8714 34.5225L64.6391 12.833C64.6397 12.6748 64.5836 12.5218 64.4812 12.4024C64.3788 12.283 64.2371 12.2055 64.0825 12.1841L64.086 12.1911Z" fill="#003B5C"/>
<path d="M90.5017 0.0345178L66.89 11.0133C66.7747 11.0701 66.6735 11.1526 66.594 11.2546C66.5145 11.3566 66.4587 11.4754 66.4308 11.6023L66.0098 14.0957C65.9716 14.3249 66.1177 14.4484 66.3369 14.3708L87.7777 5.70554C88.025 5.6012 88.2299 5.41463 88.3587 5.17652L90.7035 0.23907C90.8079 0.0415714 90.7314 -0.0571778 90.5017 0.0345178ZM17.1269 33.0308L1.0019 40.7897C0.789685 40.8814 0.8036 40.9554 1.03669 40.9554H2.10125C2.3115 40.9607 2.52038 40.9198 2.71355 40.8355L16.5772 34.6672C16.7929 34.5755 17.0608 34.5438 17.1721 34.1911L17.36 33.38C17.4435 33.0097 17.2695 32.9956 17.1269 33.0308Z" fill="#F26322"/>
<path d="M87.2524 6.83758L66.483 15.1537C66.3688 15.2148 66.2688 15.2998 66.1896 15.4032C66.1104 15.5066 66.0539 15.6259 66.0238 15.7532V15.8414C65.982 16.0741 66.1247 16.1941 66.3369 16.0953L86.2539 8.96774C86.4957 8.84699 86.6949 8.65365 86.8245 8.41404L87.4646 7.04213C87.5655 6.83053 87.4751 6.73883 87.2524 6.83758ZM16.6607 35.436L4.45305 40.7896C4.23736 40.8813 4.25127 40.9554 4.48437 40.9554H5.23234C5.41187 40.9642 5.59085 40.9292 5.75419 40.8531L16.539 36.1555C16.7547 36.0708 16.7512 36.0109 16.7999 35.8028L16.8556 35.5207C16.9182 35.3443 16.7477 35.4043 16.6607 35.436Z" fill="#008FB4"/>
<path d="M100.285 33.5387C100.28 33.1655 100.386 32.7995 100.587 32.4871C100.789 32.1747 101.077 31.93 101.416 31.7841C101.755 31.6382 102.129 31.5977 102.491 31.6677C102.852 31.7376 103.185 31.915 103.447 32.1771C103.709 32.4393 103.889 32.7745 103.962 33.1401C104.036 33.5058 104.001 33.8854 103.862 34.2308C103.722 34.5763 103.485 34.8719 103.179 35.0802C102.874 35.2885 102.514 35.4001 102.146 35.4008C101.902 35.4051 101.66 35.36 101.434 35.2682C101.208 35.1764 101.002 35.0398 100.829 34.8664C100.656 34.693 100.518 34.4862 100.425 34.2582C100.331 34.0302 100.284 33.7856 100.285 33.5387V33.5387ZM102.146 35.0905C102.449 35.0975 102.748 35.0128 103.003 34.8471C103.259 34.6815 103.46 34.4424 103.581 34.1604C103.702 33.8784 103.738 33.5662 103.683 33.2637C103.628 32.9612 103.486 32.682 103.274 32.4618C103.062 32.2416 102.791 32.0903 102.494 32.0273C102.197 31.9642 101.888 31.9923 101.607 32.1078C101.326 32.2233 101.085 32.4211 100.915 32.676C100.745 32.9308 100.654 33.2312 100.653 33.5387C100.646 33.7412 100.68 33.9429 100.752 34.1319C100.824 34.3208 100.933 34.493 101.072 34.6381C101.212 34.7831 101.379 34.898 101.563 34.9757C101.748 35.0535 101.946 35.0925 102.146 35.0905V35.0905ZM101.756 34.6144H101.436V32.4736H102.243C102.741 32.4736 102.988 32.657 102.988 33.0802C102.992 33.1559 102.981 33.2317 102.956 33.3029C102.93 33.3742 102.891 33.4395 102.84 33.4949C102.789 33.5503 102.727 33.5946 102.659 33.6252C102.59 33.6557 102.516 33.6719 102.442 33.6727L103.04 34.6144H102.692L102.135 33.6868H101.767L101.756 34.6144ZM102.139 33.4118C102.41 33.4118 102.654 33.3906 102.654 33.0591C102.654 32.7946 102.417 32.7452 102.195 32.7452H101.756V33.4082L102.139 33.4118Z" fill="#003B5C"/>
</svg>
