<svg width="169" height="14" viewBox="0 0 169 14" fill="none" xmlns="http://www.w3.org/2000/svg">
<path d="M8.2112 5.39791C8.2112 3.42236 6.79564 2.1468 4.78897 2.1468H0.666748V13.2224H1.84897V8.66458H4.78897C6.79564 8.66458 8.2112 7.37347 8.2112 5.39791ZM7.02897 5.39791C7.02897 6.86014 6.08008 7.6068 4.69564 7.6068H1.84897V3.20458H4.69564C6.08008 3.20458 7.02897 3.93569 7.02897 5.39791Z" fill="white"/>
<path d="M18.028 13.2224L13.968 2.1468H12.9724L8.89686 13.2224H10.1569L11.0435 10.7179H15.8813L16.768 13.2224H18.028ZM15.5391 9.69125H11.4013L13.4857 3.84236L15.5391 9.69125Z" fill="white"/>
<path d="M25.9731 3.20458V2.1468H18.382V3.20458H21.5864V13.2224H22.7687V3.20458H25.9731Z" fill="white"/>
<path d="M29.8441 13.2224V2.1468H28.6619V13.2224H29.8441Z" fill="white"/>
<path d="M40.5499 13.2224V12.1646H34.8565V8.1668H39.7099V7.10903H34.8565V3.20458H40.5499V2.1468H33.6743V13.2224H40.5499Z" fill="white"/>
<path d="M51.806 13.2224V2.1468H50.6238V10.9979L44.7438 2.1468H43.6238V13.2224H44.806V4.34013L50.686 13.2224H51.806Z" fill="white"/>
<path d="M62.0948 3.20458V2.1468H54.5037V3.20458H57.7082V13.2224H58.8904V3.20458H62.0948Z" fill="white"/>
<path d="M74.6028 9.4268V2.1468H71.8806V9.36458C71.8806 10.4224 71.2739 10.889 70.4339 10.889C69.8273 10.889 69.5473 10.6712 69.205 10.329L67.4162 12.1024C68.3184 13.0046 69.1428 13.3157 70.4339 13.3157C72.5184 13.3157 74.6028 12.0557 74.6028 9.4268Z" fill="white"/>
<path d="M85.377 7.68458C85.377 5.81791 85.377 4.40236 84.2414 3.2668C83.4481 2.47347 82.5148 2.05347 81.1614 2.05347C79.8081 2.05347 78.8748 2.47347 78.0814 3.2668C76.9459 4.40236 76.9459 5.81791 76.9459 7.68458C76.9459 9.55125 76.9459 10.9668 78.0814 12.1024C78.8748 12.8957 79.8081 13.3157 81.1614 13.3157C82.5148 13.3157 83.4481 12.8957 84.2414 12.1024C85.377 10.9668 85.377 9.55125 85.377 7.68458ZM82.6548 7.68458C82.6548 9.7068 82.4992 10.0646 82.2503 10.3912C82.0481 10.6557 81.6592 10.889 81.1614 10.889C80.6637 10.889 80.2748 10.6557 80.0725 10.3912C79.8237 10.0646 79.6681 9.7068 79.6681 7.68458C79.6681 5.66236 79.8237 5.28902 80.0725 4.96236C80.2748 4.69791 80.6637 4.48013 81.1614 4.48013C81.6592 4.48013 82.0481 4.69791 82.2503 4.96236C82.4992 5.28902 82.6548 5.66236 82.6548 7.68458Z" fill="white"/>
<path d="M96.0893 9.33347V2.1468H93.3671V9.27125C93.3671 10.2979 92.776 10.889 91.8738 10.889C90.9715 10.889 90.4115 10.2979 90.4115 9.27125V2.1468H87.6893V9.33347C87.6893 11.7601 89.5715 13.3157 91.8738 13.3157C94.176 13.3157 96.0893 11.7601 96.0893 9.33347Z" fill="white"/>
<path d="M107.525 13.2224L105.13 8.60236C106.001 8.1668 106.934 7.21791 106.934 5.70902C106.934 3.88902 105.612 2.1468 103.154 2.1468H98.7673V13.2224H101.49V9.10014H102.407L104.367 13.2224H107.525ZM104.212 5.70902C104.212 6.28458 103.776 6.82903 103.03 6.82903H101.49V4.58902H103.03C103.776 4.58902 104.212 5.13347 104.212 5.70902Z" fill="white"/>
<path d="M118.186 13.2224V2.1468H115.464V7.71569L111.917 2.1468H109.537V13.2224H112.259V7.65347L115.806 13.2224H118.186Z" fill="white"/>
<path d="M128.58 13.2224V10.7957H123.773V8.85125H127.88V6.42458H123.773V4.57347H128.58V2.1468H121.051V13.2224H128.58Z" fill="white"/>
<path d="M139.429 2.1468H136.457L134.731 6.12902L132.989 2.1468H130.017L133.362 8.71125V13.2224H136.084V8.71125L139.429 2.1468Z" fill="white"/>
<path d="M148.614 9.83125C148.614 8.80458 148.38 7.98014 147.789 7.40458C147.323 6.93791 146.607 6.6268 145.611 6.4868L144.274 6.30014C143.885 6.25347 143.651 6.11347 143.511 5.97347C143.34 5.80236 143.294 5.60014 143.294 5.46014C143.294 4.97791 143.683 4.43347 144.631 4.43347C145.518 4.43347 146.156 4.51125 146.731 5.0868L148.443 3.37569C147.494 2.4268 146.296 2.05347 144.709 2.05347C142.189 2.05347 140.665 3.53125 140.665 5.55347C140.665 6.50236 140.914 7.24903 141.427 7.77791C141.925 8.29125 142.671 8.61791 143.651 8.75792L144.989 8.94458C145.347 8.99125 145.58 9.10014 145.72 9.24014C145.876 9.41125 145.938 9.62903 145.938 9.89347C145.938 10.5312 145.425 10.889 144.351 10.889C143.465 10.889 142.454 10.6868 141.878 10.1112L140.136 11.8535C141.256 13.0046 142.64 13.3157 144.336 13.3157C146.669 13.3157 148.614 12.0868 148.614 9.83125Z" fill="white"/>
<path d="M166.007 13.7596C166.114 13.5296 166.169 13.2787 166.168 13.0251C166.168 12.6143 166.032 12.232 165.785 11.9496C165.562 11.6951 165.274 11.5549 164.975 11.5549C164.675 11.5549 164.387 11.6951 164.165 11.9496C163.917 12.232 163.781 12.614 163.781 13.0251C163.78 13.2788 163.835 13.5296 163.942 13.7596C164.275 13.8684 164.623 13.9237 164.974 13.9234C165.325 13.9239 165.674 13.8686 166.007 13.7596V13.7596Z" fill="white"/>
<path d="M165.005 10.1962C165.236 10.1799 165.409 9.98085 165.393 9.75157C165.376 9.52229 165.176 9.34965 164.946 9.36597C164.716 9.38228 164.542 9.58137 164.559 9.81065C164.575 10.0399 164.775 10.2126 165.005 10.1962Z" fill="white"/>
<path d="M164.975 7.33521C164.097 7.33521 163.256 7.68226 162.635 8.30002C162.015 8.91778 161.666 9.75565 161.666 10.6293C161.666 11.1592 161.794 11.6813 162.04 12.1512C162.286 12.6212 162.642 13.0251 163.078 13.3285C163.066 13.2278 163.059 13.1265 163.059 13.025C163.059 11.941 163.749 11.0416 164.654 10.8683C164.417 10.7992 164.21 10.6557 164.062 10.4594C163.914 10.263 163.835 10.0243 163.835 9.77894C163.835 9.4779 163.955 9.18918 164.169 8.97631C164.382 8.76344 164.672 8.64385 164.975 8.64385C165.277 8.64372 165.567 8.76311 165.781 8.97577C165.995 9.18843 166.115 9.47696 166.115 9.77791C166.115 10.0232 166.035 10.262 165.888 10.4583C165.74 10.6547 165.532 10.7982 165.296 10.8673C166.201 11.0416 166.89 11.941 166.89 13.024C166.89 13.1254 166.884 13.2268 166.872 13.3275C167.308 13.024 167.664 12.6201 167.91 12.1502C168.156 11.6802 168.284 11.1581 168.283 10.6283C168.283 9.75471 167.934 8.91703 167.314 8.29948C166.693 7.68192 165.852 7.33507 164.975 7.33521V7.33521Z" fill="white"/>
<path d="M154.283 13.9999L158.419 11.4314V0.235107L154.283 2.98027V13.9999Z" fill="white"/>
<path d="M168.231 8.05575V0L164.096 2.43116V6.56302C164.383 6.50152 164.676 6.47053 164.97 6.47059C165.599 6.47001 166.22 6.61253 166.785 6.88725C167.35 7.16198 167.845 7.56165 168.231 8.05575V8.05575Z" fill="white"/>
<path d="M163.322 6.81093V2.57277L159.186 0.141357V11.3374L161.303 12.4915C160.994 11.904 160.834 11.2508 160.835 10.588C160.835 9.78563 161.07 9.00077 161.512 8.32978C161.954 7.65878 162.583 7.13088 163.322 6.81093V6.81093Z" fill="white"/>
</svg>
