<svg width="16" height="18" viewBox="0 0 16 18" fill="none" xmlns="http://www.w3.org/2000/svg">
<g clip-path="url(#clip0_722_2743)">
<path d="M1.34669 0H10.4667C11.6667 0.2504 12.5515 0.989599 13.3531 1.8688C13.8195 2.3808 14.3259 2.8552 14.8195 3.3416C15.6107 4.1216 15.9851 5.0744 15.9867 6.1752C15.9867 9.5184 15.9747 12.8616 15.9971 16.2048C16.0027 17.0784 15.7115 17.6952 14.8675 18H1.34749C0.502685 17.6976 0.214687 17.0808 0.218687 16.208C0.237353 11.4021 0.237353 6.59627 0.218687 1.7904C0.213887 0.916 0.50269 0.3024 1.34669 0ZM10.3723 1.1624C10.306 1.14507 10.2387 1.13224 10.1707 1.124C7.35682 1.12133 4.54429 1.12 1.73309 1.12C1.40029 1.12 1.34669 1.3168 1.34669 1.592C1.34989 6.536 1.34989 11.48 1.34669 16.424C1.34669 16.744 1.45629 16.8848 1.78909 16.884C6.00242 16.8792 10.2158 16.8792 14.4291 16.884C14.7571 16.884 14.8763 16.7488 14.8763 16.428C14.871 12.9507 14.871 9.47253 14.8763 5.9936C14.8763 5.6616 14.7515 5.6008 14.4539 5.604C13.2411 5.6184 12.0283 5.6104 10.8155 5.6104H10.3731L10.3723 1.1624ZM14.1619 4.48L11.5131 1.8256V4.48H14.1619Z" fill="#008FB4"/>
<path d="M8.33998 4.35679C8.23278 5.13359 8.11278 5.90959 8.02638 6.68879C7.99286 6.93408 8.02034 7.18385 8.10638 7.41599C8.54638 8.43199 9.14638 9.34079 10.1104 9.93599C10.3022 10.0362 10.5164 10.0858 10.7328 10.08C11.5688 10.0928 12.4072 10.044 13.2408 10.0896C13.82 10.1216 14.0744 10.4096 14.0896 10.856C14.1144 11.576 13.84 11.8728 13.1176 11.8384C12.1304 11.7904 11.2336 11.4208 10.3504 11.0048C10.1641 10.9112 9.9535 10.8772 9.74718 10.9072C8.52851 11.1776 7.31492 11.4685 6.10639 11.78C5.91759 11.8296 5.73438 12.0104 5.60878 12.176C5.06158 12.896 4.57838 13.6632 3.99118 14.3448C3.50558 14.9088 3.01598 14.9736 2.49918 14.724C2.10878 14.5344 1.97118 14.2608 2.21918 13.8896C2.52234 13.4576 2.87486 13.0623 3.26958 12.712C3.54587 12.4607 3.86188 12.2568 4.20478 12.1088C4.76478 11.8688 5.12478 11.4832 5.38078 10.9408C5.89678 9.84719 6.45758 8.77519 6.97438 7.68159C7.05593 7.47841 7.07432 7.25538 7.02718 7.04159C6.82158 6.05279 6.53998 5.07679 6.61358 4.05039C6.66238 3.37439 6.88878 3.12399 7.45278 3.12479C7.96158 3.12479 8.27038 3.46559 8.30958 4.07119C8.31518 4.16399 8.30958 4.25759 8.30958 4.35119L8.33998 4.35679ZM7.52798 8.40559L6.18958 11.1368L9.13598 10.3248C8.59838 9.68399 8.05518 9.03999 7.52798 8.40559ZM7.52078 5.84559L7.65118 5.82719C8.05918 5.05999 7.98398 3.81519 7.39998 3.48559C7.44238 4.31999 7.48158 5.08159 7.52078 5.84479V5.84559ZM11.6872 10.708C12.3272 10.9888 12.9552 11.3776 13.7088 11.0544C13.12 10.508 12.3904 10.676 11.6872 10.7072V10.708ZM4.42318 12.488C3.79518 12.9592 3.24558 13.5008 2.90318 14.2232C3.60078 13.8088 4.01198 13.148 4.42318 12.4872V12.488Z" fill="#008FB4"/>
</g>
<defs>
<clipPath id="clip0_722_2743">
<rect width="15.7832" height="18" fill="white" transform="translate(0.216797)"/>
</clipPath>
</defs>
</svg>
