<svg width="17" height="18" viewBox="0 0 17 18" fill="none" xmlns="http://www.w3.org/2000/svg">
<g clip-path="url(#clip0_723_8102)">
<path d="M1.73834 0H10.8583C12.0583 0.2504 12.9431 0.989599 13.7447 1.8688C14.2111 2.3808 14.7175 2.8552 15.2111 3.3416C16.0023 4.1216 16.3767 5.0744 16.3783 6.1752C16.3783 9.5184 16.3663 12.8616 16.3887 16.2048C16.3943 17.0784 16.1031 17.6952 15.2591 18H1.73913C0.894333 17.6976 0.606334 17.0808 0.610334 16.208C0.629001 11.4021 0.629001 6.59627 0.610334 1.7904C0.605534 0.916 0.894337 0.3024 1.73834 0ZM10.7639 1.1624C10.6977 1.14507 10.6303 1.13224 10.5623 1.124C7.74847 1.12133 4.93593 1.12 2.12473 1.12C1.79193 1.12 1.73834 1.3168 1.73834 1.592C1.74154 6.536 1.74154 11.48 1.73834 16.424C1.73834 16.744 1.84793 16.8848 2.18073 16.884C6.39407 16.8792 10.6074 16.8792 14.8207 16.884C15.1487 16.884 15.2679 16.7488 15.2679 16.428C15.2626 12.9507 15.2626 9.47253 15.2679 5.9936C15.2679 5.6616 15.1431 5.6008 14.8455 5.604C13.6327 5.6184 12.4199 5.6104 11.2071 5.6104H10.7647L10.7639 1.1624ZM14.5535 4.48L11.9047 1.8256V4.48H14.5535Z" fill="white"/>
<path d="M8.7316 4.35682C8.6244 5.13362 8.5044 5.90962 8.418 6.68882C8.38447 6.93411 8.41195 7.18388 8.498 7.41602C8.938 8.43202 9.538 9.34082 10.502 9.93602C10.6938 10.0363 10.9081 10.0858 11.1244 10.08C11.9604 10.0928 12.7988 10.044 13.6324 10.0896C14.2116 10.1216 14.466 10.4096 14.4812 10.856C14.506 11.576 14.2316 11.8728 13.5092 11.8384C12.522 11.7904 11.6252 11.4208 10.742 11.0048C10.5557 10.9113 10.3451 10.8772 10.1388 10.9072C8.92013 11.1776 7.70654 11.4686 6.498 11.78C6.3092 11.8296 6.126 12.0104 6.0004 12.176C5.4532 12.896 4.97 13.6632 4.3828 14.3448C3.8972 14.9088 3.4076 14.9736 2.8908 14.724C2.5004 14.5344 2.3628 14.2608 2.6108 13.8896C2.91396 13.4576 3.26648 13.0624 3.6612 12.712C3.93748 12.4607 4.25349 12.2569 4.5964 12.1088C5.1564 11.8688 5.5164 11.4832 5.7724 10.9408C6.2884 9.84722 6.8492 8.77522 7.366 7.68162C7.44754 7.47844 7.46594 7.25541 7.4188 7.04162C7.2132 6.05282 6.9316 5.07682 7.0052 4.05042C7.054 3.37442 7.2804 3.12402 7.8444 3.12482C8.3532 3.12482 8.662 3.46562 8.7012 4.07122C8.7068 4.16402 8.7012 4.25762 8.7012 4.35122L8.7316 4.35682ZM7.9196 8.40562L6.5812 11.1368L9.5276 10.3248C8.99 9.68402 8.4468 9.04002 7.9196 8.40562ZM7.9124 5.84562L8.0428 5.82722C8.4508 5.06002 8.3756 3.81522 7.7916 3.48562C7.834 4.32002 7.8732 5.08162 7.9124 5.84482V5.84562ZM12.0788 10.708C12.7188 10.9888 13.3468 11.3776 14.1004 11.0544C13.5116 10.508 12.782 10.676 12.0788 10.7072V10.708ZM4.8148 12.488C4.1868 12.9592 3.6372 13.5008 3.2948 14.2232C3.9924 13.8088 4.4036 13.148 4.8148 12.4872V12.488Z" fill="white"/>
</g>
<defs>
<clipPath id="clip0_723_8102">
<rect width="15.7832" height="18" fill="white" transform="translate(0.608398)"/>
</clipPath>
</defs>
</svg>
