<?xml version="1.0" encoding="UTF-8"?>
<svg width="86px" height="60px" viewBox="0 0 86 60" version="1.1" xmlns="http://www.w3.org/2000/svg" xmlns:xlink="http://www.w3.org/1999/xlink">
    <!-- Generator: Sketch 61.2 (89653) - https://sketch.com -->
<!--    <title>Artboard Copy 4</title>-->
    <desc>Created with Sketch.</desc>
    <g id="Artboard-Copy-4" stroke="none" stroke-width="1" fill="none" fill-rule="evenodd">
        <g id="Group" transform="translate(0.000000, 1.000000)">
            <path d="M83.4770621,28.7486061 L83.5442558,28.8766719 L85.6534751,33.4073876 C85.8865641,33.9080752 85.6696326,34.5029185 85.168945,34.7360075 C84.7040209,34.9524472 84.1579114,34.7808591 83.8956438,34.3543638 L83.8403252,34.2514774 L82.9079311,32.247987 C82.2540099,41.9810674 78.1417021,51.0212049 71.3707959,57.9029542 C70.983455,58.2966361 70.3503109,58.3017765 69.956629,57.9144355 C69.5629471,57.5270946 69.5578067,56.8939505 69.9451477,56.5002686 C76.4028758,49.9368242 80.3154226,41.3123146 80.9182268,32.0259563 L79.5787848,33.8035715 C79.2466906,34.2448558 78.6197435,34.333372 78.1784591,34.0012778 C77.768695,33.6929046 77.6631036,33.1302959 77.9160029,32.6981796 L77.9807528,32.600952 L80.9858693,28.6077746 C81.1339185,28.4110479 81.3281171,28.253789 81.5513261,28.1498768 C82.258179,27.8208101 83.0901387,28.0896943 83.4770621,28.7486061 Z M53,4 C54.6568542,4 56,5.34314575 56,7 L56,54 C56,55.6568542 54.6568542,57 53,57 L34,57 C32.3431458,57 31,55.6568542 31,54 L31,7 C31,5.34314575 32.3431458,4 34,4 L53,4 Z M53,6 L34,6 C33.4871642,6 33.0644928,6.38604019 33.0067277,6.88337887 L33,7 L33,54 C33,54.5128358 33.3860402,54.9355072 33.8833789,54.9932723 L34,55 L53,55 C53.5128358,55 53.9355072,54.6139598 53.9932723,54.1166211 L54,54 L54,7 C54,6.48716416 53.6139598,6.06449284 53.1166211,6.00672773 L53,6 Z M16.9827854,0.585564457 C17.3764673,0.972905394 17.3816077,1.60604951 16.9942667,1.99973141 C10.5366847,8.56302737 6.62416877,17.1872952 6.02122848,26.4734135 L7.36062956,24.6964285 C7.69272374,24.2551442 8.31967094,24.166628 8.76095531,24.4987222 C9.17071937,24.8070954 9.27631082,25.3697041 9.02341149,25.8018204 L8.95866164,25.899048 L5.95354506,29.8922254 C5.80549584,30.0889521 5.61129727,30.246211 5.38808832,30.3501232 C4.68123535,30.6791899 3.84927567,30.4103057 3.46235227,29.7513939 L3.39515859,29.6233281 L1.28593928,25.0926124 C1.05285034,24.5919248 1.26978183,23.9970815 1.77046935,23.7639925 C2.23539347,23.5475528 2.78150298,23.7191409 3.04377062,24.1456362 L3.09908916,24.2485226 L4.03148331,26.252013 C4.68540452,16.5189326 8.79771233,7.4787951 15.5686184,0.597045797 C15.9559594,0.20336389 16.5891035,0.19822352 16.9827854,0.585564457 Z" id="Combined-Shape" fill="#142847" fill-rule="nonzero" transform="translate(43.469707, 29.250000) rotate(-360.000000) translate(-43.469707, -29.250000) "></path>
            <g id="Group-Copy-2" transform="translate(77.939414, 43.000000) rotate(-360.000000) translate(-77.939414, -43.000000) translate(68.939414, 27.500000)"></g>
            <g id="Group-Copy-4" transform="translate(9.000000, 15.500000) scale(-1, -1) rotate(360.000000) translate(-9.000000, -15.500000) "></g>
        </g>
    </g>
</svg>
