<?xml version="1.0" encoding="UTF-8"?>
<svg width="86px" height="60px" viewBox="0 0 86 60" version="1.1" xmlns="http://www.w3.org/2000/svg" xmlns:xlink="http://www.w3.org/1999/xlink">
    <!-- Generator: Sketch 61.2 (89653) - https://sketch.com -->
<!--    <title>Artboard Copy 5</title>-->
    <desc>Created with Sketch.</desc>
    <g id="Artboard-Copy-5" stroke="none" stroke-width="1" fill="none" fill-rule="evenodd">
        <g id="Group-2-Copy" transform="translate(43.500000, 30.000000) rotate(-360.000000) translate(-43.500000, -30.000000) translate(3.000000, -3.000000)">
            <path d="M79,31.5 C79.5522847,31.5 80,31.9477153 80,32.5 C80,42.636357 76.2583017,52.1840294 69.6465258,59.5459537 L71.4264975,59.1329817 C71.9645485,59.0084043 72.501715,59.3435908 72.6262924,59.8816419 C72.7419714,60.3812607 72.4612213,60.8801168 71.9897301,61.0485766 L71.8776322,61.0814368 L67.0088144,62.2087365 C66.7689486,62.2642737 66.5190998,62.2599126 66.2813183,62.196038 C65.5283175,61.9937614 65.0638349,61.2530107 65.1909747,60.4995455 L65.2218205,60.3582501 L66.5183527,55.5317404 C66.6616319,54.9983649 67.210169,54.6821293 67.7435446,54.8254085 C68.2388219,54.9584535 68.5468714,55.4409301 68.4736341,55.9362268 L68.4498765,56.0506004 L67.7506195,58.6567269 C74.2903295,51.5992512 78,42.3437409 78,32.5 C78,31.9477153 78.4477153,31.5 79,31.5 Z M64,21 C65.6568542,21 67,22.3431458 67,24 L67,43 C67,44.6568542 65.6568542,46 64,46 L17,46 C15.3431458,46 14,44.6568542 14,43 L14,24 C14,22.3431458 15.3431458,21 17,21 L64,21 Z M64,23 L17,23 C16.4871642,23 16.0644928,23.3860402 16.0067277,23.8833789 L16,24 L16,43 C16,43.5128358 16.3860402,43.9355072 16.8833789,43.9932723 L17,44 L64,44 C64.5128358,44 64.9355072,43.6139598 64.9932723,43.1166211 L65,43 L65,24 C65,23.4871642 64.6139598,23.0644928 64.1166211,23.0067277 L64,23 Z M14.6580961,3.30396203 C15.4110969,3.5062386 15.8755795,4.24698929 15.7484397,5.00045453 L15.7175939,5.14174991 L14.4210617,9.96825956 C14.2777825,10.5016351 13.7292454,10.8178707 13.1958698,10.6745915 C12.7005925,10.5415465 12.392543,10.0590699 12.4657803,9.56377317 L12.4895379,9.44939955 L13.1895608,6.84244662 C6.64937452,13.9000262 2.93941439,23.1558749 2.93941439,33 C2.93941439,33.5522847 2.49169914,34 1.93941439,34 C1.38712964,34 0.939414391,33.5522847 0.939414391,33 C0.939414391,22.8639362 4.68089627,13.3165229 11.2923149,5.95468508 L9.51291694,6.36701833 C8.97486591,6.49159574 8.43769942,6.15640915 8.313122,5.61835812 C8.19744297,5.11873931 8.47819311,4.61988318 8.94968425,4.45142344 L9.06178221,4.41856318 L13.9306,3.29126354 C14.1704658,3.23572631 14.4203146,3.24008744 14.6580961,3.30396203 Z" id="Combined-Shape" fill="#142847" fill-rule="nonzero"></path>
            <g id="Group" transform="translate(61.939414, 31.500000)"></g>
            <g id="Group-Copy" transform="translate(9.500000, 17.000000) scale(-1, -1) translate(-9.500000, -17.000000) translate(0.000000, 0.000000)"></g>
        </g>
    </g>
</svg>
